<svg xmlns="http://www.w3.org/2000/svg" xmlns:xlink="http://www.w3.org/1999/xlink" width="188.5" height="110.5" viewBox="0 0 188.5 110.5">
  <defs>
    <linearGradient id="linear-gradient" x1="-0.21" y1="-0.641" x2="1.143" y2="1.544" gradientUnits="objectBoundingBox">
      <stop offset="0" stop-color="#fdfdfd"/>
      <stop offset="1" stop-color="#fcfcfc"/>
    </linearGradient>
    <filter id="長方形_19" x="110" y="0" width="77" height="32" filterUnits="userSpaceOnUse">
      <feOffset dx="1.5" dy="1.5" input="SourceAlpha"/>
      <feGaussianBlur stdDeviation="1.5" result="blur"/>
      <feFlood flood-opacity="0.161"/>
      <feComposite operator="in" in2="blur"/>
      <feComposite in="SourceGraphic"/>
    </filter>
    <linearGradient id="linear-gradient-2" x1="0.107" y1="0.072" x2="1" y2="1" gradientUnits="objectBoundingBox">
      <stop offset="0" stop-color="#fdfdfd"/>
      <stop offset="1" stop-color="#f7f7f7"/>
    </linearGradient>
    <filter id="楕円形_3" x="143.5" y="64.5" width="45" height="46" filterUnits="userSpaceOnUse">
      <feOffset dx="2" dy="2" input="SourceAlpha"/>
      <feGaussianBlur stdDeviation="1.5" result="blur-2"/>
      <feFlood flood-opacity="0.161"/>
      <feComposite operator="in" in2="blur-2"/>
      <feComposite in="SourceGraphic"/>
    </filter>
    <filter id="楕円形_4" x="139.5" y="60.5" width="45" height="46" filterUnits="userSpaceOnUse">
      <feOffset dx="-2" dy="-2" input="SourceAlpha"/>
      <feGaussianBlur stdDeviation="1.5" result="blur-3"/>
      <feFlood flood-color="#fff" flood-opacity="0.161"/>
      <feComposite operator="in" in2="blur-3"/>
      <feComposite in="SourceGraphic"/>
    </filter>
  </defs>
  <g id="グループ_32" data-name="グループ 32" transform="translate(-90 -1123)">
    <text id="Todolist" transform="translate(90 1144)" fill="#2c2c2c" font-size="17" font-family="YuGo-Medium, YuGothic" font-weight="500" letter-spacing="0.15em"><tspan x="0" y="0">Todolist</tspan></text>
    <text id="資料制作" transform="translate(90 1202)" fill="#2c2c2c" font-size="12" font-family="YuGo-Medium, YuGothic" font-weight="500" letter-spacing="0.15em"><tspan x="0" y="0">資料制作</tspan></text>
    <text id="Deadline_8_15" data-name="Deadline  8/15" transform="translate(94 1220)" fill="#646464" font-size="7" font-family="YuGo-Medium, YuGothic" font-weight="500" letter-spacing="0.15em"><tspan x="0" y="0" xml:space="preserve">Deadline  8/15</tspan></text>
    <g id="Button2" transform="translate(203 1126)">
      <g id="グループ_15" data-name="グループ 15" transform="translate(0 0)">
        <g transform="matrix(1, 0, 0, 1, -113, -3)" filter="url(#長方形_19)">
          <rect id="長方形_19-2" data-name="長方形 19" width="68" height="23" rx="11.5" transform="translate(113 3)" fill="url(#linear-gradient)"/>
        </g>
      </g>
      <text id="Add" transform="translate(34 15)" fill="#9f9f9f" font-size="8" font-family="YuGo-Medium, YuGothic" font-weight="500" letter-spacing="0.15em"><tspan x="-8.416" y="0">Add</tspan></text>
    </g>
    <g id="Button1" transform="translate(236 1190)">
      <g id="グループ_10" data-name="グループ 10" transform="translate(0 0)">
        <g transform="matrix(1, 0, 0, 1, -146, -67)" filter="url(#楕円形_3)">
          <ellipse id="楕円形_3-2" data-name="楕円形 3" cx="18" cy="18.5" rx="18" ry="18.5" transform="translate(146 67)" fill="url(#linear-gradient-2)"/>
        </g>
        <g transform="matrix(1, 0, 0, 1, -146, -67)" filter="url(#楕円形_4)">
          <ellipse id="楕円形_4-2" data-name="楕円形 4" cx="18" cy="18.5" rx="18" ry="18.5" transform="translate(146 67)" fill="url(#linear-gradient-2)"/>
        </g>
      </g>
    </g>
    <path id="チェック" d="M11.815,73.413,5.857,79.63,1.919,75.52,0,77.522l3.938,4.11,1.919,2,1.918-2,5.958-6.217Z" transform="translate(246.394 1130.109)" fill="#a0a0a0"/>
  </g>
</svg>
