<svg xmlns="http://www.w3.org/2000/svg" xmlns:xlink="http://www.w3.org/1999/xlink" width="290.5" height="269.5" viewBox="0 0 290.5 269.5">
  <defs>
    <linearGradient id="linear-gradient" x1="-0.21" y1="-0.641" x2="1.143" y2="1.544" gradientUnits="objectBoundingBox">
      <stop offset="0" stop-color="#fdfdfd"/>
      <stop offset="1" stop-color="#fcfcfc"/>
    </linearGradient>
    <filter id="長方形_19" x="175" y="0" width="115" height="45" filterUnits="userSpaceOnUse">
      <feOffset dx="1.5" dy="1.5" input="SourceAlpha"/>
      <feGaussianBlur stdDeviation="1.5" result="blur"/>
      <feFlood flood-opacity="0.161"/>
      <feComposite operator="in" in2="blur"/>
      <feComposite in="SourceGraphic"/>
    </filter>
    <linearGradient id="linear-gradient-2" x1="0.107" y1="0.072" x2="1" y2="1" gradientUnits="objectBoundingBox">
      <stop offset="0" stop-color="#fdfdfd"/>
      <stop offset="1" stop-color="#f7f7f7"/>
    </linearGradient>
    <filter id="楕円形_3" x="225.5" y="99.5" width="65" height="67" filterUnits="userSpaceOnUse">
      <feOffset dx="2" dy="2" input="SourceAlpha"/>
      <feGaussianBlur stdDeviation="1.5" result="blur-2"/>
      <feFlood flood-opacity="0.161"/>
      <feComposite operator="in" in2="blur-2"/>
      <feComposite in="SourceGraphic"/>
    </filter>
    <filter id="楕円形_4" x="221.5" y="95.5" width="65" height="67" filterUnits="userSpaceOnUse">
      <feOffset dx="-2" dy="-2" input="SourceAlpha"/>
      <feGaussianBlur stdDeviation="1.5" result="blur-3"/>
      <feFlood flood-color="#fff" flood-opacity="0.161"/>
      <feComposite operator="in" in2="blur-3"/>
      <feComposite in="SourceGraphic"/>
    </filter>
    <filter id="楕円形_3-2" x="225.5" y="202.5" width="65" height="67" filterUnits="userSpaceOnUse">
      <feOffset dx="2" dy="2" input="SourceAlpha"/>
      <feGaussianBlur stdDeviation="1.5" result="blur-4"/>
      <feFlood flood-opacity="0.161"/>
      <feComposite operator="in" in2="blur-4"/>
      <feComposite in="SourceGraphic"/>
    </filter>
    <filter id="楕円形_4-2" x="221.5" y="198.5" width="65" height="67" filterUnits="userSpaceOnUse">
      <feOffset dx="-2" dy="-2" input="SourceAlpha"/>
      <feGaussianBlur stdDeviation="1.5" result="blur-5"/>
      <feFlood flood-color="#fff" flood-opacity="0.161"/>
      <feComposite operator="in" in2="blur-5"/>
      <feComposite in="SourceGraphic"/>
    </filter>
  </defs>
  <g id="グループ_31" data-name="グループ 31" transform="translate(-217 -1567)">
    <text id="Todolist" transform="translate(217 1600)" fill="#2c2c2c" font-size="30" font-family="YuGo-Medium, YuGothic" font-weight="500" letter-spacing="0.15em"><tspan x="0" y="0">Todolist</tspan></text>
    <text id="Deadline_8_25" data-name="Deadline  8/25" transform="translate(225 1822)" fill="rgba(44,44,44,0.8)" font-size="14" font-family="YuGo-Medium, YuGothic" font-weight="500" letter-spacing="0.15em"><tspan x="0" y="0" xml:space="preserve">Deadline  8/25</tspan></text>
    <text id="Webデザイン" transform="translate(217 1691)" fill="#2c2c2c" font-size="23" font-family="YuGo-Medium, YuGothic" font-weight="500" letter-spacing="0.15em"><tspan x="0" y="0">Webデザイン</tspan></text>
    <text id="Deadline_8_15" data-name="Deadline  8/15" transform="translate(225 1720)" fill="#646464" font-size="14" font-family="YuGo-Medium, YuGothic" font-weight="500" letter-spacing="0.15em"><tspan x="0" y="0" xml:space="preserve">Deadline  8/15</tspan></text>
    <text id="資料制作" transform="translate(217 1794)" fill="#2c2c2c" font-size="23" font-family="YuGo-Medium, YuGothic" font-weight="500" letter-spacing="0.15em"><tspan x="0" y="0">資料制作</tspan></text>
    <g id="Button2" transform="translate(395 1570)">
      <g id="グループ_15" data-name="グループ 15" transform="translate(0.001 0)">
        <g transform="matrix(1, 0, 0, 1, -178, -3)" filter="url(#長方形_19)">
          <rect id="長方形_19-2" data-name="長方形 19" width="106" height="36" rx="18" transform="translate(178 3)" fill="url(#linear-gradient)"/>
        </g>
      </g>
      <text id="Add" transform="translate(52 22)" fill="#9f9f9f" font-size="14" font-family="YuGo-Medium, YuGothic" font-weight="500" letter-spacing="0.15em"><tspan x="-14.728" y="0">Add</tspan></text>
    </g>
    <g id="Button1" transform="translate(445 1669)">
      <g id="グループ_10" data-name="グループ 10" transform="translate(0 0)">
        <g transform="matrix(1, 0, 0, 1, -228, -102)" filter="url(#楕円形_3)">
          <ellipse id="楕円形_3-3" data-name="楕円形 3" cx="28" cy="29" rx="28" ry="29" transform="translate(228 102)" fill="url(#linear-gradient-2)"/>
        </g>
        <g transform="matrix(1, 0, 0, 1, -228, -102)" filter="url(#楕円形_4)">
          <ellipse id="楕円形_4-3" data-name="楕円形 4" cx="28" cy="29" rx="28" ry="29" transform="translate(228 102)" fill="url(#linear-gradient-2)"/>
        </g>
      </g>
    </g>
    <path id="チェック" d="M18.486,73.413,9.164,83.14,3,76.71,0,79.842l6.162,6.43,3,3.132,3-3.132,9.322-9.727Z" transform="translate(462.028 1616.921)" fill="#a0a0a0"/>
    <g id="グループ_28" data-name="グループ 28" transform="translate(444.87 1771.9)">
      <g id="Button1-2" data-name="Button1" transform="translate(0.129 0.1)">
        <g id="グループ_10-2" data-name="グループ 10" transform="translate(0 0)">
          <g transform="matrix(1, 0, 0, 1, -228, -205)" filter="url(#楕円形_3-2)">
            <ellipse id="楕円形_3-4" data-name="楕円形 3" cx="28" cy="29" rx="28" ry="29" transform="translate(228 205)" fill="url(#linear-gradient-2)"/>
          </g>
          <g transform="matrix(1, 0, 0, 1, -228, -205)" filter="url(#楕円形_4-2)">
            <ellipse id="楕円形_4-4" data-name="楕円形 4" cx="28" cy="29" rx="28" ry="29" transform="translate(228 205)" fill="url(#linear-gradient-2)"/>
          </g>
        </g>
      </g>
      <path id="チェック-2" data-name="チェック" d="M18.486,73.413,9.164,83.14,3,76.71,0,79.842l6.162,6.43,3,3.132,3-3.132,9.322-9.727Z" transform="translate(17.157 -52.374)" fill="#a0a0a0"/>
    </g>
  </g>
</svg>
