<svg xmlns="http://www.w3.org/2000/svg" width="524.741" height="323.619" viewBox="0 0 524.741 323.619">
  <g id="undraw_Eating_together_re_ux62_1_" data-name="undraw_Eating_together_re_ux62 (1)" transform="translate(0 -126.777)">
    <path id="パス_1" data-name="パス 1" d="M588.406,690.044l-98.3-177.23a2.644,2.644,0,0,0-1.312-2.118,2.614,2.614,0,0,0-1.42-.343h-.1a2.608,2.608,0,0,0-2.72,2.377L380.375,690.044a2.642,2.642,0,0,0,4.576,2.642l102.3-174.117,96.573,174.117a2.642,2.642,0,0,0,4.576-2.642Z" transform="translate(-246.815 -244.569)" fill="#3f3d56"/>
    <path id="パス_2" data-name="パス 2" d="M374.958,656.585l11.111-2.55-4.545-44.069-16.4,3.762Z" transform="translate(-150.735 -241.518)" fill="#ffb6b6"/>
    <path id="パス_3" data-name="パス 3" d="M457.937,652.2l-15.812,3.627-5.056-9.88-.286-.35a15.722,15.722,0,0,1-3.532-9.734L420.109,601.1l-1.075-.511a6.472,6.472,0,0,1-2.656-9.357l-1.391-3.68-39.259.072-.039-.011-48.21-13.524,5.062-30.175,13.561,8.531c4.469-.29,81.018-4.99,88.089,12.165,6.3,15.277,15.372,41.376,21.876,60.581a14.992,14.992,0,0,0,1.2,2.481A10.828,10.828,0,0,1,459,632.878a12.674,12.674,0,0,0,.46,2.382c2.7,8.081-1.415,16.731-1.457,16.818Z" transform="translate(-225.124 -258.426)" fill="#2f2e41"/>
    <path id="パス_4" data-name="パス 4" d="M528.638,751.432l3.612-.829,12.788-8.971,8.875,4h0a16.527,16.527,0,0,1,19.8,12.412l.12.523-41.383,9.495Z" transform="translate(-308.169 -340.049)" fill="#2f2e41"/>
    <path id="パス_5" data-name="パス 5" d="M249.11,739.641c1.13-12.3,8.332-24.606,19.884-28.967a56.89,56.89,0,0,0,1.257,39.039c1.951,4.8,4.62,9.93,3.089,14.877a12.718,12.718,0,0,1-6.273,7.039,37.777,37.777,0,0,1-9.117,3.127l-.6.532C251.987,764.163,247.981,751.936,249.11,739.641Z" transform="translate(-192.692 -327.268)" fill="#f0f0f0"/>
    <path id="パス_6" data-name="パス 6" d="M274.833,710.72a48.626,48.626,0,0,0-11.2,27.741,20.94,20.94,0,0,0,.449,6.546,12.009,12.009,0,0,0,3.164,5.472,24.858,24.858,0,0,1,4,4.491,7.354,7.354,0,0,1,.552,5.989,19.1,19.1,0,0,1-4.029,6.448c-1.827,2.156-3.758,4.365-4.474,7.168-.087.34-.609.185-.522-.154,1.246-4.876,5.847-7.771,7.944-12.194a7.447,7.447,0,0,0,.294-6.547c-.916-1.847-2.556-3.2-3.979-4.637a12.816,12.816,0,0,1-3.293-5.235,19.358,19.358,0,0,1-.7-6.5,47.174,47.174,0,0,1,2.983-14.44,49.487,49.487,0,0,1,8.436-14.539c.224-.268.6.13.373.4Z" transform="translate(-198.408 -327.087)" fill="#fff"/>
    <path id="パス_7" data-name="パス 7" d="M260.228,747.266a7.3,7.3,0,0,1-5.8-7.46.272.272,0,0,1,.544.01,6.756,6.756,0,0,0,5.405,6.928C260.725,746.814,260.569,747.336,260.228,747.266Z" transform="translate(-194.965 -339.189)" fill="#fff"/>
    <path id="パス_8" data-name="パス 8" d="M268.934,771.726a14.062,14.062,0,0,0,6.016-8.3c.088-.339.61-.185.522.154a14.626,14.626,0,0,1-6.278,8.62C268.9,772.392,268.64,771.913,268.934,771.726Z" transform="translate(-200.902 -348.969)" fill="#fff"/>
    <path id="パス_9" data-name="パス 9" d="M272.3,726.725a4.13,4.13,0,0,0,3.905-.324c.293-.192.552.287.26.478a4.628,4.628,0,0,1-4.319.368.281.281,0,0,1-.184-.338.273.273,0,0,1,.338-.184Z" transform="translate(-202.202 -333.743)" fill="#fff"/>
    <path id="パス_10" data-name="パス 10" d="M311.052,745.242c-.18.125-.359.25-.539.38a54.383,54.383,0,0,0-6.776,5.649c-.165.157-.33.318-.49.48a57.333,57.333,0,0,0-11.9,17.436,55.671,55.671,0,0,0-2.795,7.985c-1,3.768-1.795,7.934-3.923,11.058a9.571,9.571,0,0,1-.714.942l-20.121.646c-.047-.022-.093-.038-.14-.06l-.8.063c.028-.143.06-.291.087-.435.016-.083.036-.167.052-.25.012-.055.024-.111.032-.162,0-.018.008-.037.012-.051.008-.051.02-.1.028-.143q.263-1.242.545-2.485s0,0,0-.009a81.869,81.869,0,0,1,6.305-18.3c.087-.173.173-.35.268-.523a53.125,53.125,0,0,1,4.537-7.388,46.966,46.966,0,0,1,3.011-3.677,39.056,39.056,0,0,1,9.534-7.631c7.094-4.042,15.4-5.77,23.189-3.69C310.657,745.131,310.852,745.184,311.052,745.242Z" transform="translate(-198.445 -341.106)" fill="#f0f0f0"/>
    <path id="パス_11" data-name="パス 11" d="M311.069,746.032a48.625,48.625,0,0,0-25.647,15.4,20.941,20.941,0,0,0-3.583,5.5,12.01,12.01,0,0,0-.768,6.274,24.858,24.858,0,0,1,.493,6,7.354,7.354,0,0,1-3.165,5.114,19.106,19.106,0,0,1-7.1,2.723c-2.756.621-5.629,1.222-7.888,3.029-.274.219-.6-.219-.324-.437,3.93-3.143,9.347-2.684,13.685-4.954a7.447,7.447,0,0,0,4.176-5.051c.381-2.026-.116-4.09-.385-6.1a12.816,12.816,0,0,1,.522-6.163,19.358,19.358,0,0,1,3.358-5.614,47.177,47.177,0,0,1,11.076-9.733,49.487,49.487,0,0,1,15.489-6.529C311.35,745.412,311.407,745.953,311.069,746.032Z" transform="translate(-198.499 -341.639)" fill="#fff"/>
    <path id="パス_12" data-name="パス 12" d="M303.363,761.5a7.3,7.3,0,0,1-.136-9.446c.224-.269.653.066.429.335a6.755,6.755,0,0,0,.145,8.786C304.032,761.439,303.594,761.761,303.363,761.5Z" transform="translate(-214.424 -344.311)" fill="#fff"/>
    <path id="パス_13" data-name="パス 13" d="M293.133,788.86a14.061,14.061,0,0,0,9.8-3c.275-.218.6.22.324.437a14.625,14.625,0,0,1-10.2,3.1C292.7,789.371,292.785,788.833,293.133,788.86Z" transform="translate(-210.819 -358.283)" fill="#fff"/>
    <path id="パス_14" data-name="パス 14" d="M326.345,752.568a4.13,4.13,0,0,0,3.313,2.092c.35.023.268.561-.08.538a4.627,4.627,0,0,1-3.67-2.307.281.281,0,0,1,.057-.381A.274.274,0,0,1,326.345,752.568Z" transform="translate(-224.455 -344.519)" fill="#fff"/>
    <path id="パス_15" data-name="パス 15" d="M792.54,739.641c-1.13-12.3-8.332-24.606-19.884-28.967a56.89,56.89,0,0,1-1.257,39.039c-1.951,4.8-4.62,9.93-3.089,14.877a12.718,12.718,0,0,0,6.273,7.039,37.775,37.775,0,0,0,9.117,3.127l.6.532C789.664,764.163,793.67,751.936,792.54,739.641Z" transform="translate(-406.925 -327.268)" fill="#f0f0f0"/>
    <path id="パス_16" data-name="パス 16" d="M775.773,710.72a48.626,48.626,0,0,1,11.2,27.741,20.936,20.936,0,0,1-.449,6.545,12.009,12.009,0,0,1-3.164,5.472,24.859,24.859,0,0,0-4,4.491,7.354,7.354,0,0,0-.552,5.989,19.1,19.1,0,0,0,4.029,6.448c1.827,2.156,3.759,4.365,4.475,7.168.087.34.609.185.522-.154-1.246-4.876-5.847-7.771-7.944-12.194a7.447,7.447,0,0,1-.294-6.547c.916-1.847,2.556-3.2,3.979-4.637a12.815,12.815,0,0,0,3.294-5.235,19.36,19.36,0,0,0,.7-6.5,47.173,47.173,0,0,0-2.983-14.44,49.487,49.487,0,0,0-8.436-14.539c-.224-.268-.6.13-.373.4Z" transform="translate(-410.165 -327.087)" fill="#fff"/>
    <path id="パス_17" data-name="パス 17" d="M794.589,747.266a7.3,7.3,0,0,0,5.8-7.46.272.272,0,0,0-.544.01,6.755,6.755,0,0,1-5.405,6.928C794.092,746.814,794.248,747.336,794.589,747.266Z" transform="translate(-417.819 -339.189)" fill="#fff"/>
    <path id="パス_18" data-name="パス 18" d="M785.511,771.726a14.062,14.062,0,0,1-6.016-8.3c-.088-.339-.61-.185-.522.154a14.625,14.625,0,0,0,6.278,8.62C785.547,772.392,785.805,771.913,785.511,771.726Z" transform="translate(-411.511 -348.969)" fill="#fff"/>
    <path id="パス_19" data-name="パス 19" d="M783.576,726.725a4.13,4.13,0,0,1-3.905-.324c-.293-.192-.552.287-.26.478a4.628,4.628,0,0,0,4.319.368.281.281,0,0,0,.184-.338A.273.273,0,0,0,783.576,726.725Z" transform="translate(-411.643 -333.743)" fill="#fff"/>
    <path id="パス_20" data-name="パス 20" d="M714.2,745.242c.18.125.36.25.539.38a54.382,54.382,0,0,1,6.776,5.649c.165.157.33.318.49.48a57.331,57.331,0,0,1,11.9,17.436,55.676,55.676,0,0,1,2.795,7.985c1,3.768,1.795,7.934,3.923,11.058a9.552,9.552,0,0,0,.714.942l20.121.646c.047-.022.093-.038.14-.06l.8.063c-.028-.143-.06-.291-.087-.435-.016-.083-.036-.167-.052-.25-.012-.055-.024-.111-.032-.162,0-.018-.008-.037-.012-.051-.008-.051-.02-.1-.028-.143q-.263-1.242-.545-2.485s0,0,0-.009a81.873,81.873,0,0,0-6.305-18.3c-.086-.173-.172-.35-.268-.523a53.125,53.125,0,0,0-4.537-7.388,46.952,46.952,0,0,0-3.011-3.677,39.056,39.056,0,0,0-9.534-7.631c-7.094-4.042-15.4-5.77-23.19-3.69C714.6,745.131,714.4,745.184,714.2,745.242Z" transform="translate(-384.775 -341.106)" fill="#f0f0f0"/>
    <path id="パス_21" data-name="パス 21" d="M714.1,746.032a48.625,48.625,0,0,1,25.647,15.4,20.94,20.94,0,0,1,3.583,5.5,12.011,12.011,0,0,1,.768,6.274,24.852,24.852,0,0,0-.494,6,7.354,7.354,0,0,0,3.165,5.114,19.106,19.106,0,0,0,7.1,2.723c2.757.621,5.629,1.222,7.888,3.029.274.219.6-.219.324-.437-3.93-3.143-9.348-2.684-13.685-4.953a7.448,7.448,0,0,1-4.176-5.051c-.381-2.026.116-4.09.385-6.1a12.818,12.818,0,0,0-.522-6.163,19.357,19.357,0,0,0-3.358-5.614,47.169,47.169,0,0,0-11.076-9.733,49.484,49.484,0,0,0-15.489-6.529C713.824,745.412,713.767,745.953,714.1,746.032Z" transform="translate(-384.642 -341.639)" fill="#fff"/>
    <path id="パス_22" data-name="パス 22" d="M754.155,761.5a7.3,7.3,0,0,0,.136-9.446c-.224-.269-.653.066-.429.335a6.755,6.755,0,0,1-.145,8.786C753.486,761.439,753.924,761.761,754.155,761.5Z" transform="translate(-401.062 -344.311)" fill="#fff"/>
    <path id="パス_23" data-name="パス 23" d="M758.6,788.86a14.061,14.061,0,0,1-9.8-3c-.274-.218-.6.219-.324.437a14.626,14.626,0,0,0,10.2,3.1c.35-.028.268-.566-.08-.538Z" transform="translate(-398.884 -358.283)" fill="#fff"/>
    <path id="パス_24" data-name="パス 24" d="M729.965,752.568a4.13,4.13,0,0,1-3.313,2.092c-.35.023-.268.561.08.538a4.627,4.627,0,0,0,3.67-2.306.281.281,0,0,0-.057-.381A.273.273,0,0,0,729.965,752.568Z" transform="translate(-389.822 -344.518)" fill="#fff"/>
    <path id="パス_25" data-name="パス 25" d="M677.9,823.084a.7.7,0,0,1-.7.7H153.859a.7.7,0,0,1,0-1.4H677.2A.7.7,0,0,1,677.9,823.084Z" transform="translate(-153.16 -373.386)" fill="#3f3d56"/>
    <circle id="楕円形_2" data-name="楕円形 2" cx="2.642" cy="2.642" r="2.642" transform="translate(334.458 174.116)" fill="#3f3d56"/>
    <path id="パス_26" data-name="パス 26" d="M670.624,377.359l35.622-22.38a2.816,2.816,0,1,1,2.774,4.895l-37.5,19.062a.908.908,0,0,1-.894-1.578Z" transform="translate(-366.61 -180.248)" fill="#e4e4e4"/>
    <path id="パス_27" data-name="パス 27" d="M548.917,466.982a2.467,2.467,0,0,1,.041-2.813,5.806,5.806,0,0,1,2.329-1.847,19.437,19.437,0,0,1,6.077-1.92c1.609-.228,3.365-.3,4.613-1.342s1.931-2.967,3.537-3.129c1.553-.156,2.747,1.544,4.3,1.65,1.92.13,3.177-2.117,5.044-2.577a5.856,5.856,0,0,1,3.709.768l7.039,3.193,3.608,1.637c1.26.572,2.681,1.342,2.919,2.7.327,1.873-1.756,3.195-3.537,3.859a56.938,56.938,0,0,1-39.414.005" transform="translate(-316.367 -221.683)"/>
    <ellipse id="楕円形_3" data-name="楕円形 3" cx="92.479" cy="13.211" rx="92.479" ry="13.211" transform="translate(150.674 253.383)" fill="#3f3d56"/>
    <rect id="長方形_1" data-name="長方形 1" width="73.983" height="10.569" rx="5.285" transform="translate(362.055 348.505)" fill="#3f3d56"/>
    <path id="パス_28" data-name="パス 28" d="M918.053,487.042l-20.944,99.5L902.564,612l10.3,48.06v21.6a.473.473,0,0,1-.006.088,4.074,4.074,0,0,1-.259,1.4h-8.279a4.073,4.073,0,0,1-.259-1.4.463.463,0,0,1-.006-.088V660.991l-9.348-43.621-1.891-8.808-3.658-17.069L888.1,586.55v-.006l1.045-4.956.8-3.823,19.482-92.532a4.4,4.4,0,0,1,8.62,1.808Z" transform="translate(-456.567 -232.755)" fill="#3f3d56"/>
    <path id="パス_29" data-name="パス 29" d="M780.079,657.139V752.26a.453.453,0,0,1-.006.088,4.074,4.074,0,0,1-.259,1.4h-8.279a4.066,4.066,0,0,1-.259-1.4.448.448,0,0,1-.006-.088V657.139a4.4,4.4,0,0,1,8.808,0Z" transform="translate(-408.335 -303.349)" fill="#3f3d56"/>
    <path id="パス_30" data-name="パス 30" d="M632.465,558h42.276a15.853,15.853,0,0,1,15.853,15.853H616.612A15.853,15.853,0,0,1,632.465,558Z" transform="translate(-254.556 -220.064)" fill="#3f3d56"/>
    <path id="パス_31" data-name="パス 31" d="M849.659,706.543H775.675a4.4,4.4,0,1,1,0-8.808h73.983a4.4,4.4,0,0,1,0,8.808Z" transform="translate(-408.336 -321.927)" fill="#3f3d56"/>
    <rect id="長方形_2" data-name="長方形 2" width="85.193" height="12.17" rx="6.085" transform="translate(177.097 359.234) rotate(180)" fill="#3f3d56"/>
    <path id="パス_32" data-name="パス 32" d="M293.988,574.83l-1.351,5.566-4.956,20.387-2.137,8.807-9.923,40.855v17.727a4.341,4.341,0,0,1-.74,2.437,4.252,4.252,0,0,1-1.509,1.4h-4.31a4.252,4.252,0,0,1-1.509-1.4,4.34,4.34,0,0,1-.74-2.437V649.389L277.841,604l7.117-29.312L260.825,460.045a4.4,4.4,0,1,1,8.614-1.808l22.307,105.943,1.028,4.885,1.2,5.7Z" transform="translate(-197.568 -221.611)" fill="#3f3d56"/>
    <path id="パス_33" data-name="パス 33" d="M445.719,656.049v93.413a4.339,4.339,0,0,1-.74,2.437,4.253,4.253,0,0,1-1.509,1.4h-4.316a4.286,4.286,0,0,1-1.5-1.4,4.341,4.341,0,0,1-.74-2.437V656.049a4.4,4.4,0,1,1,8.808,0Z" transform="translate(-270.301 -302.899)" fill="#3f3d56"/>
    <path id="パス_34" data-name="パス 34" d="M0,0H85.193V2.4A15.854,15.854,0,0,1,69.339,18.256H15.854A15.854,15.854,0,0,1,0,2.4V0Z" transform="translate(177.097 353.149) rotate(180)" fill="#3f3d56"/>
    <path id="パス_35" data-name="パス 35" d="M381.414,712.27H296.221a4.4,4.4,0,1,1,0-8.807h85.193a4.4,4.4,0,0,1,0,8.808Z" transform="translate(-210.402 -324.291)" fill="#3f3d56"/>
    <path id="パス_36" data-name="パス 36" d="M471.206,678.338l-9.255-4.427,12.714-38.688,13.661,6.533Z" transform="translate(-190.707 -251.944)" fill="#9e616a"/>
    <path id="パス_37" data-name="パス 37" d="M567.406,675.09l-9.953,2.456-14.42-38.076,14.69-3.625Z" transform="translate(-224.181 -252.201)" fill="#9e616a"/>
    <path id="パス_38" data-name="パス 38" d="M671.723,487.518a9.649,9.649,0,0,0,13.071,3.279,9.251,9.251,0,0,0,1.24-.9L715.3,506.692l-1.271-17.238-27.593-13.3a9.613,9.613,0,0,0-11.661-1.519,9.251,9.251,0,0,0-3.049,12.888Z" transform="translate(-366.644 -229.281)" fill="#9e616a"/>
    <path id="パス_39" data-name="パス 39" d="M725.519,477.377l5.173,3.152L753.923,494.7a13.7,13.7,0,0,0,18.885-4.359,13.4,13.4,0,0,0,1.708-9.461l-10.325-51.584A14.313,14.313,0,0,0,745.4,418.43a13.628,13.628,0,0,0-8.6,16.555l10.8,36.608-16.549-7.716Z" transform="translate(-389.448 -206.29)" fill="#e6e6e6"/>
    <path id="パス_40" data-name="パス 40" d="M693.493,672.345,677.567,640.4l0-.073,1.573-58.586c.02-.521.062-1.044.125-1.559a17.822,17.822,0,0,1,6.781-11.993,17.123,17.123,0,0,1,12.773-3.493l45.541,5.893,1.579-6.458.294-.107,43.635-15.992.251.409c5.715,9.3,9.71,27.873,10.8,33.344l.016.079c.023.115.036.185.041.206,2.246,9.336-7.035,24.8-16.282,27.127-19.477,4.964-36.9,1.092-57.064-3.393-7.232-1.609-14.707-3.271-22.94-4.708l.245,4.846a36.307,36.307,0,0,0,2.3,10.9c1.468,4.3,2.627,7.7.175,14.776l-1.186,3.425a11.676,11.676,0,0,1-1.2,10.351l-.238.364,10.5,26.577Z" transform="translate(-369.651 -260.126)" fill="#2f2e41"/>
    <path id="パス_41" data-name="パス 41" d="M646.772,651.764,627.78,650l6.728-21.518a140.487,140.487,0,0,1,10.378-40.818l9.178-21.75c.021-.484.062-.971.121-1.448a17.819,17.819,0,0,1,6.781-11.993,17.135,17.135,0,0,1,12.773-3.493l45.474,5.885,1.981-16.623L764.84,532.4l.2.325c7.629,12.413,12.472,22.13,15.242,30.582.139.431.263.871.368,1.309a17.608,17.608,0,0,1-12.585,21.243c-23.448,5.978-51.646,5.812-88.719-.525l-17.942,42.7a65.573,65.573,0,0,1-6.337,11.624Z" transform="translate(-349.098 -253.671)" fill="#2f2e41"/>
    <ellipse id="楕円形_4" data-name="楕円形 4" cx="22" cy="22.49" rx="22" ry="22.49" transform="translate(341.922 137.555)" fill="#9e616a"/>
    <path id="パス_42" data-name="パス 42" d="M759.965,489.951l-3.157-11.309-.776-5.578-4.537.151-8.9-20.553-3.458-5.42q-1.058-1.114-1.917-2.142a48.281,48.281,0,0,1-8.546-13.762,36.162,36.162,0,0,1-2.5-11.333c-.645-11.484,4.2-23.633,14.8-37.141a6.375,6.375,0,0,1-.345-1.481,6.266,6.266,0,0,1,5.448-6.937L756.3,373.3a6.037,6.037,0,0,1,4.476,1.305,6.276,6.276,0,0,1,2.318,4.26,6.416,6.416,0,0,1-.723,3.711,27.315,27.315,0,0,1,22.671,19.076,181.408,181.408,0,0,1,14.551,35.938,18.363,18.363,0,0,1,.087,7.39,20.849,20.849,0,0,0-.082,6.887,31.158,31.158,0,0,0,2.932,7.22c1.437,2.865,2.923,5.828,3.325,8.848l.028.212Z" transform="translate(-389.692 -187.974)" fill="#e4e4e4"/>
    <path id="パス_43" data-name="パス 43" d="M730.931,451.612a48.122,48.122,0,0,0,8.5,13.684c.613.733,1.261,1.452,1.94,2.173l3.48,5.461c12.829-9.616,23.223-47.477,23.223-47.477L753.6,422.637Z" transform="translate(-391.682 -208.358)" opacity="0.2" style="isolation: isolate"/>
    <path id="パス_44" data-name="パス 44" d="M703.2,368.868a9.671,9.671,0,0,1-3.266,13.088,9.292,9.292,0,0,1-1.377.675l1.025,33.724-14.6-9.193,1.266-30.615a9.644,9.644,0,0,1,4.154-11.017,9.23,9.23,0,0,1,12.8,3.339Z" transform="translate(-372.709 -184.232)" fill="#9e616a"/>
    <path id="パス_45" data-name="パス 45" d="M700.739,420.389l-16.06,2.284.691,33.258a13.916,13.916,0,0,0,6.8,11.727h0A13.333,13.333,0,0,0,708.1,465.85l37.917-36.47a14.376,14.376,0,0,0,1.059-19.741h0a13.634,13.634,0,0,0-19.534-1.337,13.972,13.972,0,0,0-1.068,1.063l-25.037,28.8Z" transform="translate(-372.587 -200.995)" fill="#e6e6e6"/>
    <path id="パス_46" data-name="パス 46" d="M330.1,694.653h11.4l5.423-43.97H330.1Z" transform="translate(-136.276 -258.327)" fill="#ffb6b6"/>
    <circle id="楕円形_5" data-name="楕円形 5" cx="22.752" cy="22.752" r="22.752" transform="translate(106.461 137.684)" fill="#ffb6b6"/>
    <path id="パス_47" data-name="パス 47" d="M426.975,686.193H410.832l-4.115-5.516-1.114-5.2-.959-.928a8,8,0,0,1-1.349-9.841l-11.7-54.584c-3.064-.269-37.62-3.359-61.64-7.61a21.1,21.1,0,0,1-14.266-8.881c-8.154-11.808-4.661-30.915-4.625-31.107l.04-.213.215-.024,56.107-6.3.076.036c1.862.882,45.683,21.685,52.844,28.846,3.234,3.234,10.448,22.446,12.063,42.871.289,3.659-.752,7.385-1.759,10.989-.942,3.372-1.916,6.859-1.724,10.155.3,5.086.578,10.421.837,15.857a5.563,5.563,0,0,0,1.325,2.629,5.408,5.408,0,0,1,1.322,2.656c.384,8.681-5.29,15.976-5.347,16.048Z" transform="translate(-218.028 -263.411)" fill="#2f2e41"/>
    <path id="パス_48" data-name="パス 48" d="M494.307,433.928a8.667,8.667,0,0,0-10.917,7.579l-18.9,5.908.789,12.364,26.579-8.719a8.714,8.714,0,0,0,2.454-17.132Z" transform="translate(-281.685 -212.893)" fill="#ffb6b6"/>
    <path id="パス_49" data-name="パス 49" d="M437.931,440.29,423.8,445.637l-.361.7a7.128,7.128,0,0,1-9.6,3.07h0l-31.757,12.019S367.9,447.236,357.8,434.57l3.441-21.166a40.548,40.548,0,0,1,5-13.931c20.707,4.541,32.594,33.488,32.594,33.488l37.32-7.121Z" transform="translate(-237.643 -198.795)"/>
    <path id="パス_50" data-name="パス 50" d="M349.2,332.367c-5.7,1.538-11.975-.507-16.421-4.387s-7.226-9.377-8.828-15.055c-1.173-4.159-1.73-8.775.122-12.679s6.835-6.538,10.68-4.566c-2.372-2.763-1.187-7.334,1.583-9.7s6.574-3.042,10.2-3.412c5.258-.538,10.688-.6,15.691,1.105s9.549,5.427,11.115,10.475A7.972,7.972,0,0,0,382.852,292a7.223,7.223,0,0,1-3.98,7.832l7.666-2.485c1.318,2.79-.992,6.244-3.946,7.138s-6.143-.083-8.946-1.374-5.52-2.923-8.565-3.427-6.621.475-8.03,3.221c-.738,1.438-.776,3.123-1.2,4.681s-1.513,3.175-3.125,3.3c-1.018.081-2.015-.462-3.03-.351a3.265,3.265,0,0,0-2.557,2.5,9.584,9.584,0,0,0-.009,3.772l1.947,14.884" transform="translate(-223.224 -150.396)" fill="#2f2e41"/>
    <path id="パス_51" data-name="パス 51" d="M311.338,521.864h-.013l-.18-.031-.052-.175c-.654-2.2-1.487-4.452-2.292-6.63a79.956,79.956,0,0,1-3-9.24,70.783,70.783,0,0,1-1.325-9.1c-.225-2.22-.457-4.515-.852-6.775-.175-1,.489-1.953,1.132-2.872a3.8,3.8,0,0,0,1.04-2.418,5.753,5.753,0,0,0-1.819-2.46c-.915-.906-1.861-1.844-2-2.83a281.915,281.915,0,0,1-2.54-40.611c.189-18.79,1.038-31.6,2.524-38.067,4-17.4,22.459-20.571,25.348-20.963a6.381,6.381,0,0,1,8.63-3.559l13.118,6.005a21.356,21.356,0,0,1,11.355,12.681l1.949,5.941.976,39.88-5.409,28.083,10.569,15.854C312.176,515.508,311.52,521.864,311.338,521.864Z" transform="translate(-213.546 -188.923)"/>
    <path id="パス_52" data-name="パス 52" d="M472.817,789.12h3.706l14.47-5.885,7.755,5.884h0a16.527,16.527,0,0,1,16.526,16.525v.538H472.818Z" transform="translate(-285.124 -357.224)" fill="#2f2e41"/>
    <path id="パス_53" data-name="パス 53" d="M498.746,481.773a8.667,8.667,0,0,0-12.517,4.468l-19.791.772-2.667,9.219,28.135,1.44a8.714,8.714,0,0,0,6.839-15.9Z" transform="translate(-281.39 -232.279)" fill="#ffb6b6"/>
    <path id="パス_54" data-name="パス 54" d="M435.693,470.916l-20.329-.253-2.573-.035-41.361-.521s-11.232-10.715-21.012-21.748l1.371-9.915a40.509,40.509,0,0,1,13.583-25.081c14.008,9.36,22.131,27.886,22.131,27.886l13.62,6.095h0a59.632,59.632,0,0,1,27.228,7.974l4.479,2.595Z" transform="translate(-234.594 -204.529)"/>
    <path id="パス_55" data-name="パス 55" d="M726.057,794.156l-6.764,1.669-2.783-6.088-1.516,7.149-17.94,4.427a4.154,4.154,0,0,1-4.106-6.786l11.885-13.43-1.593-6.456,15.291-2.819Z" transform="translate(-375.57 -352.513)" fill="#2f2e41"/>
    <path id="パス_56" data-name="パス 56" d="M606.765,792.878l-6.451-2.633,1.334-6.56-5.435,4.886-17.108-6.983a4.154,4.154,0,0,1,.676-7.9l17.514-3.859,2.513-6.157,14.02,6.723Z" transform="translate(-327.937 -349.147)" fill="#2f2e41"/>
    <path id="パス_57" data-name="パス 57" d="M570.988,492.46H565.7a21.456,21.456,0,0,1-21.432-21.432v-.294h48.148v.294A21.456,21.456,0,0,1,570.988,492.46Z" transform="translate(-314.623 -228.214)" fill="#e4e4e4"/>
    <path id="パス_58" data-name="パス 58" d="M577.056,455.877c0,1.459-2.642,2.642-2.642,2.642s-2.642-1.183-2.642-2.642,2.642-2.642,2.642-2.642S577.056,454.418,577.056,455.877Z" transform="translate(-325.976 -220.99)" fill="#3f3d56"/>
    <path id="パス_59" data-name="パス 59" d="M604.056,455.877c0,1.459-2.642,2.642-2.642,2.642s-2.642-1.183-2.642-2.642,2.642-2.642,2.642-2.642S604.056,454.418,604.056,455.877Z" transform="translate(-337.122 -220.99)" fill="#3f3d56"/>
    <path id="パス_60" data-name="パス 60" d="M586.056,464.877c0,1.459-2.642,2.642-2.642,2.642s-2.642-1.183-2.642-2.642,2.642-2.642,2.642-2.642S586.056,463.418,586.056,464.877Z" transform="translate(-329.691 -224.705)" fill="#3f3d56"/>
    <circle id="楕円形_6" data-name="楕円形 6" cx="2.642" cy="2.642" r="2.642" transform="translate(235.227 224.025)" fill="#3f3d56"/>
    <path id="パス_61" data-name="パス 61" d="M492.1,434.058l41.673,5.755a2.816,2.816,0,1,1-1.021,5.533l-40.981-9.5a.908.908,0,0,1,.329-1.783Z" transform="translate(-292.659 -213.069)" fill="#e4e4e4"/>
    <path id="パス_65" data-name="パス 65" d="M813.014,297.127c-3.739-4.361-5.517-10.147-8.507-15.1s-8.192-9.384-13.687-8.232c-3.789.794-6.716,4.137-8.2,7.865s-1.76,7.837-2.02,11.864c.092-8.275-5.36-16.3-12.87-18.937a18.953,18.953,0,0,0-21.215,6.953,11.467,11.467,0,0,0-15.23-.32,12.774,12.774,0,0,0-2.051,15.764A11.545,11.545,0,0,0,744,300.922l1.744,1.6a7.561,7.561,0,0,0,4.122,8.782c2.595,1.048,6.259.874,7.23,3.6.679,1.9-.59,3.934-1.939,5.4s-2.951,2.972-3.113,5c-.245,3.053,2.91,5.192,5.778,5.836a18.015,18.015,0,0,0,18.574-7.752q.115-.177.251-.354a26.7,26.7,0,0,0,5.372-20.419c-.224-1.41,0-2.46.974-2.794,4.2-1.444,15.98,1.587,19.544,4.325s6.418,6.363,9.851,9.279,7.808,5.164,12.167,4.371c3.491-.636,6.461-3.17,8.459-6.228a37.492,37.492,0,0,0,4.177-10.162A19.661,19.661,0,0,1,813.014,297.127Z" transform="translate(-390.224 -146.836)" fill="#2f2e41"/>
  </g>
</svg>
