<svg id="Google" xmlns="http://www.w3.org/2000/svg" width="19.128" height="19.521" viewBox="0 0 19.128 19.521">
  <path id="パス_12" data-name="パス 12" d="M20.064,5.384a8.458,8.458,0,0,1,1.621-2.331,9.738,9.738,0,0,1,13.432-.686c.146.126.182.2.023.356-.818.8-1.622,1.614-2.432,2.423-.083.083-.139.184-.287.049a5.606,5.606,0,0,0-7.535.168,6.224,6.224,0,0,0-1.619,2.471c-.051-.033-.1-.063-.151-.1Z" transform="translate(-19.012 0)" fill="#d7282a" fill-rule="evenodd"/>
  <path id="パス_13" data-name="パス 13" d="M23.1,222.194a6.537,6.537,0,0,0,1.2,2.041,5.744,5.744,0,0,0,5.113,1.958,6.187,6.187,0,0,0,2.617-.912c.077.069.151.143.233.207q1.416,1.105,2.833,2.208a8.113,8.113,0,0,1-3.655,2,9.83,9.83,0,0,1-8.939-1.8,9.063,9.063,0,0,1-2.584-3.221Z" transform="translate(-18.868 -210.544)" fill="#45ac43" fill-rule="evenodd"/>
  <path id="パス_14" data-name="パス 14" d="M192.194,160.224q-1.417-1.1-2.833-2.208c-.082-.064-.155-.138-.233-.207a4.957,4.957,0,0,0,1.524-1.8,6.254,6.254,0,0,0,.331-.908c.064-.213.044-.3-.22-.294-1.572.013-3.145.007-4.717.007-.333,0-.333,0-.333-.345,0-1.066.005-2.131,0-3.2,0-.205.034-.285.266-.284q4.35.013,8.7,0c.157,0,.255.011.282.2a10.7,10.7,0,0,1-1.256,7.2A7.186,7.186,0,0,1,192.194,160.224Z" transform="translate(-175.971 -143.072)" fill="#5d7fbe" fill-rule="evenodd"/>
  <path id="パス_15" data-name="パス 15" d="M4.232,108.958l-3.187,2.475a8.828,8.828,0,0,1-.958-3.08A9.645,9.645,0,0,1,.9,102.968c.044-.094.1-.183.149-.275l3.052,2.35c.048.037.1.066.151.1A6.166,6.166,0,0,0,4.232,108.958Z" transform="translate(0 -97.309)" fill="#f4c300" fill-rule="evenodd"/>
</svg>
