<svg xmlns="http://www.w3.org/2000/svg" width="279.47" height="290.46" viewBox="0 0 279.47 290.46">
  <g id="undraw_Working_late_re_0c3y" transform="translate(0 0)">
    <path id="パス_39" data-name="パス 39" d="M478.469,204.5a139.05,139.05,0,0,1-11.9,56.518c-.331.746-.666,1.488-1.011,2.227-.049.115-.1.23-.157.345-.132.282-.265.568-.4.85-.1.206-.2.408-.3.613q-.361.753-.732,1.5-.408.821-.826,1.638t-.847,1.627q-.376.706-.756,1.408-.491.9-1,1.809-.439.774-.882,1.537-.476.815-.962,1.631l-.031.052c-.07.118-.139.237-.213.355l-.2.321c-.066.108-.129.213-.2.317v0c-.213.348-.425.69-.638,1.035l0,0c-.477.767-.965,1.53-1.457,2.286q-1.37,2.112-2.812,4.161s0,0-.007.007c-.575.822-1.164,1.638-1.756,2.446q-.57.774-1.15,1.54t-1.171,1.523c-.087.115-.178.23-.268.345-.5.641-1.011,1.282-1.526,1.913-.111.139-.223.275-.331.411-.171.206-.338.411-.505.613-.056.07-.112.136-.171.206-.286.341-.571.683-.864,1.024v0q-.423.5-.857,1c-.063.073-.125.146-.192.219-.094.112-.192.22-.289.331-.24.282-.488.561-.739.84,0,0,0,.007-.007.01l-.011.01v0a140,140,0,0,1-25.274,22.378.948.948,0,0,1-.1.066c-.115.084-.23.16-.345.24-.833.571-1.673,1.136-2.519,1.687q-.622.408-1.247.8v0s0,0-.007,0h-.007l-.007.007-.021.01-.028.017c-.32.206-.638.408-.962.61-.1.066-.2.125-.293.185-.171.108-.345.216-.519.324s-.345.213-.519.317c-.22.132-.439.268-.659.4q-.716.434-1.436.857c-.174.1-.352.206-.53.31s-.352.2-.53.3a.032.032,0,0,1-.021.014l-.007,0-.007.007h0c-.488.279-.972.557-1.464.829l0,0c-.394.22-.788.436-1.185.652q-1.411.768-2.84,1.509c-.662.345-1.328.68-2,1.011-.4.2-.812.4-1.22.6-.338.164-.68.328-1.018.488-.094.045-.185.091-.279.132-.153.073-.31.146-.464.216l-.383.178c-.307.146-.617.286-.924.425-.345.157-.686.31-1.031.463-1.3.579-2.607,1.136-3.92,1.673a136.654,136.654,0,0,1-14.367,4.969c-.227.066-.457.132-.687.2q-3.131.878-6.307,1.606-5.546,1.275-11.193,2.094c-.007,0-.017,0-.024,0-.45.066-.9.129-1.352.192-.038.007-.08.014-.122.017,0,0-.007,0-.014,0h0c-.5.066-1,.132-1.5.2-.035.007-.07.01-.1.014-.467.056-.937.112-1.408.164-.505.056-1.011.108-1.519.16h0c-.774.077-1.547.15-2.321.213-.014,0-.028,0-.042,0-.307.028-.613.049-.92.073h0q-5.41.429-10.921.425-5.985,0-11.848-.5c-.014,0-.028,0-.042,0q-1.249-.1-2.495-.23c-.219-.021-.436-.045-.655-.066-.042,0-.084-.007-.125-.014l-.2-.021c-.035,0-.073-.007-.108-.014-.289-.031-.579-.063-.871-.1-.324-.038-.652-.077-.976-.119s-.652-.08-.976-.125c-.07-.007-.143-.014-.213-.028-.237-.028-.474-.059-.707-.094-.115-.014-.226-.031-.338-.049-.227-.031-.449-.063-.676-.1-.007,0-.017,0-.024,0a137.7,137.7,0,0,1-21.009-4.736h0c-.373-.115-.746-.233-1.119-.352q-.167-.047-.335-.1-1.453-.465-2.889-.962-1.981-.68-3.934-1.422l-1.063-.408c-.707-.279-1.411-.558-2.112-.843q-1.793-.732-3.561-1.509h0v0c-.93-.411-1.857-.829-2.777-1.265-.167-.077-.335-.153-.5-.233a.351.351,0,0,1-.091-.042s0,0-.007,0c-.24-.112-.481-.227-.721-.341l-.007,0q-1.845-.883-3.659-1.823-2.248-1.16-4.457-2.4-1.829-1.03-3.624-2.115-2.127-1.286-4.209-2.648-.648-.423-1.3-.857c-.39-.261-.777-.523-1.164-.788q-2.049-1.4-4.046-2.875-2.065-1.521-4.07-3.119-2.613-2.08-5.122-4.279-4.678-4.087-8.973-8.586c-.091-.094-.181-.188-.272-.286-.286-.3-.568-.6-.85-.9-.411-.439-.819-.885-1.223-1.331q-1-1.092-1.972-2.209h0v0c-.394-.449-.777-.9-1.167-1.348v0c-.056-.063-.108-.125-.16-.188-.247-.289-.488-.575-.728-.868v0q-.491-.58-.962-1.164c-.07-.084-.136-.164-.2-.247h0v0c-.258-.314-.512-.631-.763-.948-.129-.157-.254-.317-.38-.477h0v0q-1.139-1.437-2.234-2.9v0c-.2-.268-.4-.537-.6-.808h0q-1.4-1.892-2.729-3.83v0q-.5-.727-.993-1.464t-.972-1.478h0q-.5-.763-.983-1.533c-.017-.028-.035-.052-.049-.077q-.481-.758-.948-1.526c-.251-.408-.5-.812-.739-1.22-.167-.275-.331-.547-.491-.826-.059-.094-.112-.188-.164-.279-.369-.631-.732-1.261-1.094-1.9-.422-.746-.84-1.5-1.247-2.251-.167-.31-.335-.624-.5-.937-.059-.1-.112-.2-.164-.307-.2-.369-.39-.739-.582-1.112s-.383-.742-.572-1.115-.376-.746-.561-1.122c-.139-.282-.279-.568-.415-.85a.751.751,0,0,1-.038-.073c-.063-.132-.129-.261-.188-.394a.229.229,0,0,1-.031-.066c-.143-.293-.282-.582-.418-.875-.181-.376-.355-.756-.53-1.136-.125-.265-.244-.533-.366-.8q-.261-.565-.512-1.139c-.178-.394-.348-.791-.519-1.188-.045-.1-.087-.2-.129-.3-.08-.181-.157-.362-.233-.544-.206-.481-.408-.969-.606-1.453q-.34-.82-.662-1.645-.308-.768-.6-1.54l-.073-.188v0a139.115,139.115,0,0,1-6.844-24.553v0a139.346,139.346,0,0,1-1.854-14.454c-.021-.265-.038-.53-.056-.795q-.345-4.919-.338-9.876,0-2.2.07-4.38A139.088,139.088,0,0,1,229.9,116.855q1.26-1.563,2.565-3.087,1.432-1.673,2.913-3.3,1.024-1.129,2.073-2.23a.472.472,0,0,1,.042-.042q.11-.12.23-.24a139.242,139.242,0,0,1,13.643-12.506c.551-.446,1.1-.882,1.659-1.31.495-.387.99-.77,1.488-1.143q.868-.659,1.746-1.3,4.574-3.35,9.419-6.328,2.023-1.244,4.091-2.418c.5-.289,1.011-.572,1.519-.854.69-.38,1.38-.756,2.077-1.122a139.936,139.936,0,0,1,134.048,1.812c.1.052.2.108.289.164.6.341,1.2.683,1.788,1.035q1.16.68,2.3,1.383,5.77,3.549,11.165,7.628c.558.422,1.115.847,1.666,1.279.5.387.993.781,1.484,1.174.268.216.54.436.809.655a140.222,140.222,0,0,1,16.4,15.73l.007.007c.077.087.153.171.227.258.24.272.481.547.718.819.031.035.063.073.094.108q.523.6,1.038,1.213a140.153,140.153,0,0,1,11.5,15.653q1.934,3.042,3.7,6.2A139.06,139.06,0,0,1,478.469,204.5Z" transform="translate(-199 -53.779)" fill="#3f3d56"/>
    <path id="パス_40" data-name="パス 40" d="M505.06,41.833l8.363,226.394v0q-.423.584-.857,1.169c-.157.215-.317.426-.481.641-.24.329-.488.653-.739.978,0,0,0,.008-.007.012l-.01.012v0a149.538,149.538,0,0,1-25.274,26.063v.089l-.1-.012c-.115.1-.23.187-.345.28-.833.666-1.673,1.323-2.519,1.964q-.622.475-1.247.937v0s0,0-.007,0h-.007l-.007.008-.021.012-.028.02c-.321.239-.638.475-.962.71-.1.077-.2.146-.293.215-.171.126-.345.252-.519.378s-.345.247-.519.369c-.693.5-1.394.982-2.094,1.461-.174.122-.352.24-.53.361s-.352.235-.53.353v.012l-.021,0-.007,0-.007.008h0c-.488.325-.972.649-1.464.966l0,0c-.394.256-.787.507-1.185.759-.941.6-1.889,1.185-2.84,1.757-.662.4-1.328.791-2,1.177-.4.235-.812.467-1.22.7-.338.191-.68.381-1.018.568-.094.053-.185.105-.279.154-.153.085-.31.171-.464.252H347.692c-.167-.089-.334-.179-.5-.272a.326.326,0,0,1-.091-.049s0,0-.007,0c-.24-.13-.481-.264-.721-.4l-.007,0q-1.845-1.029-3.659-2.123-4.114-2.472-8.081-5.264-2.128-1.5-4.21-3.084-.648-.493-1.3-1c-.39-.3-.777-.609-1.164-.917q-2.049-1.631-4.046-3.348-2.065-1.771-4.07-3.632-2.613-2.423-5.122-4.984-4.678-4.761-8.973-10c-.091-.11-.181-.219-.272-.333q-1.051-1.285-2.073-2.6l6.969-230.785a11.21,11.21,0,0,1,.756-4.1c1.059-2.678,3.126-4.5,5.5-4.5H498.8c2.4,0,4.492,1.867,5.537,4.6.035.089.066.179.1.268A11.261,11.261,0,0,1,505.06,41.833Z" transform="translate(-267.02 -33.232)" fill="#3f3d56"/>
    <ellipse id="楕円形_11" data-name="楕円形 11" cx="9.409" cy="10.958" rx="9.409" ry="10.958" transform="translate(57.012 4.246)" fill="#fff"/>
    <path id="パス_41" data-name="パス 41" d="M519.369,149.473a240.835,240.835,0,0,1-51.308,7.405,64.265,64.265,0,0,1-7.861-.053c-5.751-.484-10.676-2.291-16.162-3.279-2.637-.473-5.575-.82-8.23-1.331q.92-1.142,1.874-2.255c5.725.484,11.539,2.067,17.333,2.8,9.849,1.252,20.884-.145,28.351-3.592,3.622-1.672,6.4-3.76,10.007-5.44a4.665,4.665,0,0,1,1.571-.481,5.466,5.466,0,0,1,2.963.769c6.056,3.057,14.849,5.542,23.01,4.175C521.525,148.668,520.369,149.211,519.369,149.473Z" transform="translate(-353.289 -104.901)" fill="#fff"/>
    <path id="パス_42" data-name="パス 42" d="M665.109,268.941c.1-.019.2-.033.307-.051a8.335,8.335,0,0,1-1.207-.91Z" transform="translate(-502.099 -186.178)" fill="#fff"/>
    <path id="パス_43" data-name="パス 43" d="M734.244,277.909q-7,.559-14.071.833a88.651,88.651,0,0,1-10.761-.073c-7.872-.666-14.615-3.136-22.124-4.488-6.882-1.237-15.245-1.833-19.615-4.579,11.294-1.955,23,2.025,34.641,3.505a82.718,82.718,0,0,0,28.229-1.394Q732.477,274.755,734.244,277.909Z" transform="translate(-504.357 -186.889)" fill="#fff"/>
    <path id="パス_44" data-name="パス 44" d="M515.568,495.148V491.81a5,5,0,0,0-4.71-4.988V473.786H509.75v13.021h-4.987v8.311H481.215V590.7H533.3V513.886a18.768,18.768,0,0,0-17.73-18.738Z" transform="translate(-382.873 -320.267)" fill="#2f2e41"/>
    <rect id="長方形_37" data-name="長方形 37" width="6.926" height="5.541" transform="translate(106.93 188.426)" fill="#fff"/>
    <rect id="長方形_38" data-name="長方形 38" width="6.926" height="5.541" transform="translate(118.289 188.426)" fill="#fff"/>
    <rect id="長方形_39" data-name="長方形 39" width="6.926" height="5.541" transform="translate(129.648 188.426)" fill="#fff"/>
    <rect id="長方形_40" data-name="長方形 40" width="6.926" height="5.541" transform="translate(106.93 202.556)" fill="#fff"/>
    <rect id="長方形_41" data-name="長方形 41" width="6.926" height="5.541" transform="translate(118.289 202.556)" fill="#fff"/>
    <rect id="長方形_42" data-name="長方形 42" width="6.926" height="5.541" transform="translate(129.648 202.556)" fill="#fff"/>
    <rect id="長方形_43" data-name="長方形 43" width="6.926" height="5.541" transform="translate(106.93 216.685)" fill="#fff"/>
    <rect id="長方形_44" data-name="長方形 44" width="6.926" height="5.541" transform="translate(118.289 216.685)" fill="#fff"/>
    <rect id="長方形_45" data-name="長方形 45" width="6.926" height="5.541" transform="translate(129.648 216.685)" fill="#fff"/>
    <rect id="長方形_46" data-name="長方形 46" width="6.926" height="5.541" transform="translate(106.93 230.814)" fill="#fff"/>
    <rect id="長方形_47" data-name="長方形 47" width="6.926" height="5.541" transform="translate(118.289 230.814)" fill="#fff"/>
    <rect id="長方形_48" data-name="長方形 48" width="6.926" height="5.541" transform="translate(129.648 230.814)" fill="#fff"/>
    <rect id="長方形_49" data-name="長方形 49" width="6.926" height="5.541" transform="translate(106.93 244.943)" fill="#fff"/>
    <rect id="長方形_50" data-name="長方形 50" width="6.926" height="5.541" transform="translate(118.289 244.943)" fill="#fff"/>
    <rect id="長方形_51" data-name="長方形 51" width="6.926" height="5.541" transform="translate(129.648 244.943)" fill="#fff"/>
    <rect id="長方形_52" data-name="長方形 52" width="6.926" height="5.541" transform="translate(106.93 259.073)" fill="#fff"/>
    <rect id="長方形_53" data-name="長方形 53" width="6.926" height="5.541" transform="translate(118.289 259.073)" fill="#fff"/>
    <rect id="長方形_54" data-name="長方形 54" width="6.926" height="5.541" transform="translate(129.648 259.073)" fill="#fff"/>
    <path id="パス_45" data-name="パス 45" d="M387.962,366.069V489.426H355.788q-2.128-1.286-4.21-2.648-.648-.424-1.3-.857c-.39-.261-.777-.523-1.164-.788q-2.049-1.4-4.046-2.875-2.065-1.521-4.07-3.119-2.614-2.08-5.122-4.279V347.3h9.28V332.48h9.419V318.35h1.108v14.13h6.91a5,5,0,0,1,5,5V347.3h1.593a18.776,18.776,0,0,1,18,13.429,19.369,19.369,0,0,1,.488,2.078A18.992,18.992,0,0,1,387.962,366.069Z" transform="translate(-288.182 -218.995)" fill="#2f2e41"/>
    <rect id="長方形_55" data-name="長方形 55" width="22.441" height="1.662" transform="translate(62.518 139.528)" fill="#fff"/>
    <rect id="長方形_56" data-name="長方形 56" width="22.441" height="1.662" transform="translate(62.518 149.779)" fill="#fff"/>
    <rect id="長方形_57" data-name="長方形 57" width="22.441" height="1.662" transform="translate(62.518 160.029)" fill="#fff"/>
    <rect id="長方形_58" data-name="長方形 58" width="22.441" height="1.662" transform="translate(62.518 170.28)" fill="#fff"/>
    <rect id="長方形_59" data-name="長方形 59" width="22.441" height="1.662" transform="translate(62.518 180.53)" fill="#fff"/>
    <rect id="長方形_60" data-name="長方形 60" width="22.441" height="1.662" transform="translate(62.518 190.781)" fill="#fff"/>
    <rect id="長方形_61" data-name="長方形 61" width="22.441" height="1.662" transform="translate(62.518 201.032)" fill="#fff"/>
    <rect id="長方形_62" data-name="長方形 62" width="22.441" height="1.662" transform="translate(62.518 211.282)" fill="#fff"/>
    <rect id="長方形_63" data-name="長方形 63" width="22.441" height="1.662" transform="translate(62.518 221.533)" fill="#fff"/>
    <rect id="長方形_64" data-name="長方形 64" width="22.441" height="1.662" transform="translate(62.518 231.784)" fill="#fff"/>
    <rect id="長方形_65" data-name="長方形 65" width="22.441" height="1.662" transform="translate(62.518 242.034)" fill="#fff"/>
    <rect id="長方形_66" data-name="長方形 66" width="22.441" height="1.662" transform="translate(62.518 252.285)" fill="#fff"/>
    <rect id="長方形_67" data-name="長方形 67" width="6.926" height="5.541" transform="translate(64.735 116.533)" fill="#fff"/>
    <path id="パス_46" data-name="パス 46" d="M504.44,38.1c-.031-.091-.063-.178-.1-.268-1.045-2.735-3.133-4.6-5.537-4.6H316.624c-2.373,0-4.44,1.822-5.5,4.5a11.211,11.211,0,0,0-.756,4.1L303.4,277.989c.4.446.812.892,1.223,1.331.282.3.565.6.85.9L312.443,41.83a7.538,7.538,0,0,1,.265-2,.1.1,0,0,1,.007-.031c.6-2.167,2.126-3.711,3.91-3.711H498.806a3.094,3.094,0,0,1,1.24.261c1.631.7,2.833,2.725,2.931,5.161,0,.108.007.213.007.321l8.363,229.186c.251-.324.5-.648.739-.976.091-.119.178-.237.265-.352.073-.1.146-.192.216-.289q.434-.585.857-1.171v0L505.061,41.83A11.261,11.261,0,0,0,504.44,38.1ZM342.707,308.18q1.814.941,3.659,1.822l.007,0c.24.115.481.23.721.341,0,0,0,0,.007,0a.349.349,0,0,0,.091.042c.167.08.335.157.5.233h118.13c.153-.07.31-.143.464-.216.094-.042.185-.087.279-.132.338-.16.68-.324,1.018-.488.408-.2.815-.4,1.22-.6.669-.331,1.335-.666,2-1.011Z" transform="translate(-267.02 -33.23)" fill="#2f2e41"/>
    <rect id="長方形_68" data-name="長方形 68" width="192.615" height="2.418" transform="translate(44.386 29.169)" fill="#2f2e41"/>
    <rect id="長方形_69" data-name="長方形 69" width="197.232" height="2.418" transform="translate(42.422 59.137)" fill="#2f2e41"/>
    <path id="パス_47" data-name="パス 47" d="M209.527,108.1H207.45l6.969-104.98H216.5Z" transform="translate(-135.161 -2.03)" fill="#2f2e41"/>
    <path id="パス_48" data-name="パス 48" d="M584.533,108.793h-2.077L574.093,3.116h2.077Z" transform="translate(-374.041 -2.03)" fill="#2f2e41"/>
    <rect id="長方形_70" data-name="長方形 70" width="197.929" height="6.922" transform="translate(42.771 103.235)" fill="#2f2e41"/>
    <path id="パス_49" data-name="パス 49" d="M400.647,285.3h2.077a3.807,3.807,0,0,1,3.807,3.807h-9.69A3.807,3.807,0,0,1,400.647,285.3Z" transform="translate(-258.555 -185.881)" fill="#2f2e41"/>
    <path id="パス_50" data-name="パス 50" d="M341,302.064c-3.136,3.136-2.892,4.443-4.087,3.722q-2.128-1.286-4.21-2.648-.648-.423-1.3-.857c-.39-.261-.777-.523-1.164-.788q-2.049-1.4-4.046-2.875-2.065-1.521-4.07-3.119-2.614-2.08-5.122-4.279-4.678-4.087-8.973-8.586c-.091-.094-.181-.188-.272-.286-.286-.3-.568-.6-.85-.9l1.418-5.123,1.742-74.659.1-22.5.007-2.077,1.547-32.533.01-2.077.9-43.861.007-1.707.014-2.418L307.8,89.772l7.074-22.828.01-2.418.108-22.57L315,40.112c3.69-3.359,8.914-4.018,15.3-3.425.317.031.641.063.965.1l.087,1.429.16,2.547v0l1.254,20.2v.007l.223,3.558.15,2.418.394,6.328-5.652,21.222.15,2.418,1.091,17.535.15,2.418.31,4.99,1.282,20.626.129,2.077.265,4.283.331,5.3.038.617.15,2.418.432,6.948.118,1.937.547,8.827.073,1.178.031.484.035.544.056.906.073,1.171.261,4.2.108,1.763.1,1.662.073,1.2.122,1.938.094,1.5.244,3.952.1,1.662.178,2.889.108,1.728.014.209.233,3.763.1,1.662.077,1.286.206,3.293.122,1.934.129,2.073.1,1.662.39,6.265.118,1.938.024.387.1,1.662.495,7.952.038.638.08,1.3.021.362.537,8.586.066,1.052.038.61.08,1.328.453,7.262.1,1.662.066,1.077.118,1.937.345,5.575.1,1.662.171,2.767.122,1.934.24,3.885.1,1.662.275,4.453.122,1.934.077,2.2.059,1.662Z" transform="translate(-269.307 -35.356)" fill="#ccc"/>
    <path id="パス_51" data-name="パス 51" d="M840.37,277.57c-.094.112-.192.22-.289.331-.24.282-.488.561-.739.84,0,0,0,.007-.007.01l-.01.01v0a140,140,0,0,1-25.274,22.378.96.96,0,0,1-.1.066c-.115.084-.23.16-.345.24-.833.571-1.672,1.136-2.519,1.687-.415.272-.829.54-1.248.805v0s0,0-.007,0h-.007l-.007.007-.021.01-.028.017c-.321.206-.638.408-.962.61-.1.066-.2.125-.292.185-.171.108-.345.216-.519.324s-.345.213-.519.317c-.219.132-.439.268-.659.4l.014-1.15.021-1.53.1-7.032.348-5.617,2.066-33.247.328-5.262.073-1.185.93-14.96.317-5.136.721-11.569.324-5.262.317-5.084.014-.2.028-.474.017-.289v0l.37-5.9.014-.251.261-4.175v-.007l.373-6.049.237-3.8.265-4.265.212-3.418.049-.784.129-2.077.007-.084.8-12.928.209-3.37v0l.219-3.533.15-2.418.31-4.941.328-5.255.129-2.077.457-7.374v0l.254-4.105.254-4.112.376-6.015.248-4.007.15-2.418,1.087-17.535.049-.76.1-1.659.352-5.673-7.558-12.97.554-8.907.15-2.418,1.589-25.55.049-.763.087-1.429c6.823-.749,12.388-.2,16.266,3.328l.108,24.414.011,2.418L833.3,93.675l0,.819.011,2.418.9,45.569.01,2.077,1.533,32.533.01,2.077.795,22.5.031,6.921,3.76,63.229Z" transform="translate(-595.015 -35.355)" fill="#ccc"/>
    <path id="パス_52" data-name="パス 52" d="M533.607,801.69c-.415.272-.829.54-1.248.805v0s0,0-.007,0h-.007l-.007.007-.021.01-.028.017c-.321.206-.638.408-.962.61-.1.066-.2.126-.293.185-.171.108-.345.216-.519.324s-.345.212-.519.317c-.219.133-.439.269-.659.4q-.716.434-1.436.857c-.174.1-.352.206-.53.31s-.352.2-.53.3v.01l-.021,0-.007,0-.007.007h0c-.488.279-.972.558-1.464.829l0,0c-.394.219-.787.436-1.185.652q-1.411.769-2.84,1.509c-.662.345-1.328.679-2,1.01-.4.2-.812.4-1.22.6-.338.164-.68.328-1.018.488-.094.045-.185.091-.279.132-.153.073-.31.146-.464.216l-.383.178c-.307.146-.617.286-.923.425-.345.157-.686.31-1.031.463-1.3.578-2.606,1.136-3.92,1.673a136.655,136.655,0,0,1-14.367,4.969c-.227.066-.457.132-.687.2q-3.131.878-6.307,1.606-5.546,1.276-11.193,2.094l-.024,0c-.449.066-.9.129-1.352.192-.038.007-.08.014-.122.017,0,0-.007,0-.014,0h0c-.5.066-1,.133-1.5.2-.035.007-.07.01-.1.014-.467.056-.937.112-1.408.164-.505.056-1.011.108-1.519.16h0c-.774.077-1.547.15-2.321.213-.014,0-.028,0-.042,0-.307.028-.613.049-.92.073h0q-5.41.428-10.921.425-5.985,0-11.848-.5c-.014,0-.028,0-.042,0q-1.249-.1-2.495-.23c-.22-.021-.436-.045-.655-.066-.042,0-.084-.007-.125-.014l-.2-.021a1.085,1.085,0,0,1-.108-.014c-.289-.031-.579-.063-.871-.1-.324-.038-.652-.076-.976-.118s-.652-.08-.976-.125c-.07-.007-.143-.014-.213-.028-.237-.028-.474-.059-.707-.094-.115-.014-.226-.031-.338-.049-.227-.031-.449-.063-.676-.1-.007,0-.017,0-.024,0A137.732,137.732,0,0,1,416,818.173h0c-.373-.115-.746-.233-1.119-.352q-.167-.047-.334-.1-1.453-.465-2.889-.962-1.981-.68-3.934-1.422l-1.063-.408c-.707-.279-1.411-.558-2.112-.843q-1.793-.732-3.561-1.509h0v0c-.93-.411-1.857-.829-2.777-1.265-.167-.077-.335-.153-.5-.233a.355.355,0,0,1-.091-.042s0,0-.007,0c-.24-.112-.481-.227-.721-.342l-.007,0q-1.845-.883-3.659-1.822-2.248-1.161-4.457-2.4-1.83-1.03-3.624-2.115-2.128-1.286-4.209-2.648Z" transform="translate(-317.534 -533.908)" fill="#2f2e41"/>
    <ellipse id="楕円形_12" data-name="楕円形 12" cx="0.697" cy="0.812" rx="0.697" ry="0.812" transform="translate(89.071 17.233)" fill="#fff"/>
    <ellipse id="楕円形_13" data-name="楕円形 13" cx="0.697" cy="0.812" rx="0.697" ry="0.812" transform="translate(131.416 18.24)" fill="#fff"/>
    <ellipse id="楕円形_14" data-name="楕円形 14" cx="0.697" cy="0.812" rx="0.697" ry="0.812" transform="translate(157.551 19.052)" fill="#fff"/>
    <circle id="楕円形_15" data-name="楕円形 15" cx="0.697" cy="0.697" r="0.697" transform="translate(194.308 121.964)" fill="#fff"/>
    <circle id="楕円形_16" data-name="楕円形 16" cx="0.697" cy="0.697" r="0.697" transform="translate(151.975 82.755)" fill="#fff"/>
    <circle id="楕円形_17" data-name="楕円形 17" cx="0.697" cy="0.697" r="0.697" transform="translate(116.948 118.48)" fill="#fff"/>
    <circle id="楕円形_18" data-name="楕円形 18" cx="0.697" cy="0.697" r="0.697" transform="translate(111.024 81.891)" fill="#fff"/>
    <circle id="楕円形_19" data-name="楕円形 19" cx="0.697" cy="0.697" r="0.697" transform="translate(64.33 74.573)" fill="#fff"/>
    <rect id="長方形_71" data-name="長方形 71" width="0.697" height="38.319" transform="translate(223.625 218.282) rotate(-1.563)" fill="#b3b3b3"/>
    <rect id="長方形_72" data-name="長方形 72" width="0.697" height="70.371" transform="translate(234.427 68.087) rotate(-0.851)" fill="#b3b3b3"/>
    <path id="パス_53" data-name="パス 53" d="M779.32,437.234H769.48a1.52,1.52,0,0,0-1.167.54,2.2,2.2,0,0,0-.416-.04,2.334,2.334,0,0,0,0,4.667,2.306,2.306,0,0,0,1.016-.236l.165,2.016.652,7.971a1.451,1.451,0,0,0,.124.286,1.534,1.534,0,0,0,1.346.8h6.4a1.54,1.54,0,0,0,1.349-.8,1.6,1.6,0,0,0,.122-.286l1.721-12.928a1.539,1.539,0,0,0-1.47-1.991Zm-11.422,4.5a1.667,1.667,0,1,1,0-3.335c.03,0,.058.008.088.01a1.527,1.527,0,0,0,.024.814l.7,2.289a1.641,1.641,0,0,1-.816.222Z" transform="translate(-568.136 -296.452)" fill="#f2f2f2"/>
    <path id="パス_54" data-name="パス 54" d="M792.28,804.1l-1.641-2.99.808-.38.645-.307,2.812-1.328,1.69-.8.7-.331.554-.261.92,1.39.464.7.07.1v0a.267.267,0,0,0-.042.021l-.028.018c-.321.206-.638.408-.962.61-.1.066-.2.125-.293.185-.171.108-.345.216-.519.324s-.345.213-.519.317c-.694.425-1.394.843-2.094,1.255-.174.1-.352.205-.53.31s-.352.2-.53.3v.01l-.021,0-.007,0-.007.007h0C793.256,803.547,792.772,803.826,792.28,804.1Z" transform="translate(-584.473 -531.311)" fill="#2f2e41"/>
    <g id="グループ_177" data-name="グループ 177" transform="translate(203.3 116.737)" opacity="0.49">
      <path id="パス_55" data-name="パス 55" d="M790.279,421.581a2.831,2.831,0,0,0,.216-.331,2.273,2.273,0,0,1-.382.12Z" transform="translate(-787.43 -402.775)" fill="#fff"/>
      <path id="パス_56" data-name="パス 56" d="M786.163,379.93a13.847,13.847,0,0,1-1.583-3.726,16.777,16.777,0,0,1,.046-4.059,6.119,6.119,0,0,0-.8-3.912c-1.069,3.385-2.129,7.115-.761,10.39.593,1.421,1.6,2.631,2.257,4.026a4.572,4.572,0,0,1,.16,4.058,3.287,3.287,0,0,0,1.837-2.929A7.921,7.921,0,0,0,786.163,379.93Z" transform="translate(-782.414 -368.234)" fill="#fff"/>
    </g>
    <g id="グループ_178" data-name="グループ 178" transform="translate(203.86 132.767)" opacity="0.49">
      <path id="パス_57" data-name="パス 57" d="M787.076,434.96a1.077,1.077,0,0,0,.084-.129.871.871,0,0,1-.149.047Z" transform="translate(-785.969 -427.654)" fill="#fff"/>
      <path id="パス_58" data-name="パス 58" d="M785.477,418.778a5.377,5.377,0,0,1-.615-1.448,6.517,6.517,0,0,1,.018-1.577,2.377,2.377,0,0,0-.312-1.52,5.978,5.978,0,0,0-.3,4.037c.23.552.624,1.022.877,1.564a1.776,1.776,0,0,1,.062,1.577,1.277,1.277,0,0,0,.714-1.138A3.079,3.079,0,0,0,785.477,418.778Z" transform="translate(-784.021 -414.234)" fill="#fff"/>
    </g>
    <path id="パス_59" data-name="パス 59" d="M349.632,118.989H327.679a2.439,2.439,0,1,1,0-4.879h21.953a2.439,2.439,0,1,1,0,4.879Z" transform="translate(-281.25 -85.926)" fill="#2f2e41"/>
    <path id="パス_60" data-name="パス 60" d="M500.03,38.489H269.694a2.439,2.439,0,0,1,0-4.879H500.03a2.439,2.439,0,1,1,0,4.879Z" transform="translate(-243.47 -33.478)" fill="#2f2e41"/>
    <path id="パス_61" data-name="パス 61" d="M327.633,188.989H305.679a2.439,2.439,0,1,1,0-4.879h21.953a2.439,2.439,0,0,1,0,4.879Z" transform="translate(-266.916 -131.534)" fill="#2f2e41"/>
    <path id="パス_62" data-name="パス 62" d="M829.632,118.989H807.679a2.439,2.439,0,0,1,0-4.879h21.953a2.439,2.439,0,0,1,0,4.879Z" transform="translate(-593.986 -85.926)" fill="#2f2e41"/>
    <path id="パス_63" data-name="パス 63" d="M854.632,185.989H832.679a2.439,2.439,0,0,1,0-4.879h21.953a2.439,2.439,0,0,1,0,4.879Z" transform="translate(-610.274 -129.579)" fill="#2f2e41"/>
    <rect id="長方形_73" data-name="長方形 73" width="0.697" height="70.371" transform="translate(46.953 64.952) rotate(-0.851)" fill="#b3b3b3"/>
    <rect id="長方形_74" data-name="長方形 74" width="0.697" height="70.371" transform="translate(53.922 145.796) rotate(-0.851)" fill="#b3b3b3"/>
    <rect id="長方形_75" data-name="長方形 75" width="0.697" height="38.319" transform="translate(46.255 205.389) rotate(-1.563)" fill="#b3b3b3"/>
    <path id="パス_64" data-name="パス 64" d="M706.486,677.049v-1.33a1.992,1.992,0,0,0-1.876-1.988v-5.194h-.442v5.188h-1.987v3.311H692.8v38.082H713.55v-30.6a7.477,7.477,0,0,0-7.064-7.466Z" transform="translate(-520.727 -447.155)" fill="#2f2e41"/>
    <rect id="長方形_76" data-name="長方形 76" width="2.76" height="2.208" transform="translate(175.494 235.291)" fill="#fff"/>
    <rect id="長方形_77" data-name="長方形 77" width="2.76" height="2.208" transform="translate(180.019 235.291)" fill="#fff"/>
    <rect id="長方形_78" data-name="長方形 78" width="2.76" height="2.208" transform="translate(184.545 235.291)" fill="#fff"/>
    <rect id="長方形_79" data-name="長方形 79" width="2.76" height="2.208" transform="translate(175.494 240.921)" fill="#fff"/>
    <rect id="長方形_80" data-name="長方形 80" width="2.76" height="2.208" transform="translate(180.019 240.921)" fill="#fff"/>
    <rect id="長方形_81" data-name="長方形 81" width="2.76" height="2.208" transform="translate(184.545 240.921)" fill="#fff"/>
    <rect id="長方形_82" data-name="長方形 82" width="2.76" height="2.208" transform="translate(175.494 246.55)" fill="#fff"/>
    <rect id="長方形_83" data-name="長方形 83" width="2.76" height="2.208" transform="translate(180.019 246.55)" fill="#fff"/>
    <rect id="長方形_84" data-name="長方形 84" width="2.76" height="2.208" transform="translate(184.545 246.55)" fill="#fff"/>
    <rect id="長方形_85" data-name="長方形 85" width="2.76" height="2.208" transform="translate(175.494 252.18)" fill="#fff"/>
    <rect id="長方形_86" data-name="長方形 86" width="2.76" height="2.208" transform="translate(180.019 252.18)" fill="#fff"/>
    <rect id="長方形_87" data-name="長方形 87" width="2.76" height="2.208" transform="translate(184.545 252.18)" fill="#fff"/>
    <rect id="長方形_88" data-name="長方形 88" width="2.76" height="2.208" transform="translate(175.494 257.809)" fill="#fff"/>
    <rect id="長方形_89" data-name="長方形 89" width="2.76" height="2.208" transform="translate(180.019 257.809)" fill="#fff"/>
    <rect id="長方形_90" data-name="長方形 90" width="2.76" height="2.208" transform="translate(184.545 257.809)" fill="#fff"/>
    <rect id="長方形_91" data-name="長方形 91" width="2.76" height="2.208" transform="translate(175.494 263.439)" fill="#fff"/>
    <rect id="長方形_92" data-name="長方形 92" width="2.76" height="2.208" transform="translate(180.019 263.439)" fill="#fff"/>
    <rect id="長方形_93" data-name="長方形 93" width="2.76" height="2.208" transform="translate(184.545 263.439)" fill="#fff"/>
    <path id="パス_65" data-name="パス 65" d="M648.166,618.145h-.635v-3.912a1.993,1.993,0,0,0-1.993-1.993h-2.753V606.61h-.442v5.629h-3.753v5.905h-3.7v56.626h20.752V625.623A7.478,7.478,0,0,0,648.166,618.145Z" transform="translate(-482.998 -406.807)" fill="#2f2e41"/>
    <rect id="長方形_94" data-name="長方形 94" width="8.941" height="0.662" transform="translate(157.799 215.809)" fill="#fff"/>
    <rect id="長方形_95" data-name="長方形 95" width="8.941" height="0.662" transform="translate(157.799 219.893)" fill="#fff"/>
    <rect id="長方形_96" data-name="長方形 96" width="8.941" height="0.662" transform="translate(157.799 223.977)" fill="#fff"/>
    <rect id="長方形_97" data-name="長方形 97" width="8.941" height="0.662" transform="translate(157.799 228.061)" fill="#fff"/>
    <rect id="長方形_98" data-name="長方形 98" width="8.941" height="0.662" transform="translate(157.799 232.145)" fill="#fff"/>
    <rect id="長方形_99" data-name="長方形 99" width="8.941" height="0.662" transform="translate(157.799 236.229)" fill="#fff"/>
    <rect id="長方形_100" data-name="長方形 100" width="8.941" height="0.662" transform="translate(157.799 240.313)" fill="#fff"/>
    <rect id="長方形_101" data-name="長方形 101" width="8.941" height="0.662" transform="translate(157.799 244.398)" fill="#fff"/>
    <rect id="長方形_102" data-name="長方形 102" width="8.941" height="0.662" transform="translate(157.799 248.482)" fill="#fff"/>
    <rect id="長方形_103" data-name="長方形 103" width="8.941" height="0.662" transform="translate(157.799 252.566)" fill="#fff"/>
    <rect id="長方形_104" data-name="長方形 104" width="8.941" height="0.662" transform="translate(157.799 256.65)" fill="#fff"/>
    <rect id="長方形_105" data-name="長方形 105" width="8.941" height="0.662" transform="translate(157.799 260.734)" fill="#fff"/>
    <rect id="長方形_106" data-name="長方形 106" width="2.76" height="2.208" transform="translate(158.682 206.647)" fill="#fff"/>
    <path id="パス_66" data-name="パス 66" d="M905.591,703.524v3.248c-.5.641-1.01,1.282-1.526,1.913-.111.139-.223.275-.331.411-.171.206-.338.411-.506.613-.056.07-.111.136-.171.206-.286.341-.571.683-.864,1.025,0,0,0,0,0,0q-.423.5-.857,1c-.157.185-.317.366-.481.551-.24.282-.488.561-.739.84,0,0,0,.007-.007.01l-.01.01v-9.834Z" transform="translate(-655.79 -469.949)" fill="#2f2e41"/>
    <path id="パス_67" data-name="パス 67" d="M884.335,684.084q-1.37,2.112-2.812,4.161s0,0-.007.007c-.575.822-1.164,1.638-1.756,2.446q-.57.774-1.15,1.54t-1.171,1.523c-.087.115-.178.23-.268.345-.5.641-1.01,1.282-1.526,1.913-.112.139-.223.275-.331.411-.171.206-.338.411-.505.613-.059.07-.115.136-.171.206-.285.341-.571.683-.864,1.025,0,0,0,0,0,0q-.423.5-.857,1c-.157.185-.317.366-.481.551H861.058a4.582,4.582,0,0,1-4.579-4.579v-6.589a4.584,4.584,0,0,1,4.579-4.579Z" transform="translate(-627.37 -457.283)" fill="#2f2e41"/>
    <path id="パス_68" data-name="パス 68" d="M933.5,521.548a6.621,6.621,0,0,0-2.174-.362H929.45a6.847,6.847,0,0,0-2.01.3,6.773,6.773,0,0,0-4.743,6.453v54.971c0,.205.01.408.028.606a6.4,6.4,0,0,0,.178,1.045c.592-.808,1.181-1.624,1.756-2.446,0,0,.007,0,.007-.007q1.443-2.049,2.812-4.161c.491-.756.979-1.519,1.457-2.286a138.846,138.846,0,0,0,9.144-17.27V527.942A6.763,6.763,0,0,0,933.5,521.548Z" transform="translate(-670.513 -351.15)" fill="#2f2e41"/>
    <path id="パス_69" data-name="パス 69" d="M512.548,741.029,507.8,738.76l6.517-19.829,7,3.349Z" transform="translate(-330.852 -468.408)" fill="#ffb6b6"/>
    <path id="パス_70" data-name="パス 70" d="M788.977,771.41c-.345.216-.69.428-1.039.641-.693.425-1.394.843-2.094,1.254-.352.206-.708.411-1.06.614v.01l-.021,0-.007,0-.537.133-.77-2.035-.355-.937-.5-1.328-.92-2.429-4.844-12.789,7.53-1.857.282,1.153h0l.139.572,2.631,10.67.537,2.181.017.066.324,1.3.279,1.129.31,1.261Z" transform="translate(-575.476 -501.985)" fill="#ffb6b6"/>
    <path id="パス_71" data-name="パス 71" d="M755.191,554.635a4.946,4.946,0,0,0,6.7,1.681,4.731,4.731,0,0,0,.636-.461l15,8.607-.651-8.835-14.143-6.819a4.927,4.927,0,0,0-5.977-.779,4.742,4.742,0,0,0-1.624,6.506Q755.159,554.586,755.191,554.635Z" transform="translate(-560.896 -368.202)" fill="#ffb6b6"/>
    <path id="パス_72" data-name="パス 72" d="M802.159,529.885l2.652,1.616,11.907,7.261a7.02,7.02,0,0,0,9.675-2.228l0-.006a6.868,6.868,0,0,0,.876-4.849l-5.292-26.439a7.336,7.336,0,0,0-9.63-5.567,6.985,6.985,0,0,0-4.407,8.485l5.534,18.763-8.482-3.955Z" transform="translate(-591.979 -336.865)" fill="#3ba9f3"/>
    <path id="パス_73" data-name="パス 73" d="M824,629.333c0-.01-.01-.049-.021-.108l-.01-.038q-.037-.188-.084-.418a94.016,94.016,0,0,0-2.735-10.443,32.089,32.089,0,0,0-2.6-6.042c-.035-.063-.073-.125-.112-.188l-.129-.209-1.084.4-.042.014-16.476,6.039-4.763,1.746-.15.056-.812,3.31-11.391-1.474-9.283-1.2-2.666-.345a8.785,8.785,0,0,0-6.547,1.791,9.133,9.133,0,0,0-3.474,6.147c-.035.265-.056.533-.066.8l-.8,30.027v.038l.373.746,7.788,15.625h5.4l3.185,0h2.589L774.7,661.974l.122-.185a5.99,5.99,0,0,0,.617-5.307l.606-1.756a9.64,9.64,0,0,0-.091-7.572,18.692,18.692,0,0,1-1.178-5.586l-.126-2.485c3.161.554,6.105,1.171,8.942,1.791q1.422.309,2.816.624c2.645.589,5.2,1.157,7.7,1.631a56.7,56.7,0,0,0,14.907,1.188c.1-.007.195-.014.292-.025,1.213-.1,2.432-.254,3.666-.474.694-.125,1.391-.268,2.094-.436l.589-.146a6.773,6.773,0,0,0,1.554-.624,10.156,10.156,0,0,0,1.934-1.4s.007,0,.007-.007q1.443-2.049,2.812-4.161c.491-.756.979-1.519,1.457-2.286A9.748,9.748,0,0,0,824,629.333Z" transform="translate(-564.997 -410.244)" fill="#2f2e41"/>
    <path id="パス_74" data-name="パス 74" d="M796.1,614.9c-.052-.223-.118-.45-.188-.669a47.664,47.664,0,0,0-1.931-4.885c-.822-1.812-1.808-3.753-2.983-5.854q-.852-1.526-1.833-3.174-.491-.826-1.021-1.683-.021-.04-.045-.077l-.1-.167-16.3,2.181-6.07.812-.362,3.025-.087.749s0,0,0,0l-.244,2.042v0l-.324,2.7-.028,0-9.008-1.167-9.283-1.2-4.986-.645a8.786,8.786,0,0,0-6.548,1.791,9.134,9.134,0,0,0-3.474,6.147c-.031.244-.052.495-.063.742l-4.7,11.147A71.928,71.928,0,0,0,721.2,647.63l-3.45,11.029.491.045,7.311.68,1.931.181,4.251-6.206c.484-.708.944-1.436,1.373-2.182a33.131,33.131,0,0,0,1.878-3.777l9.2-21.884q1.066.183,2.112.348,4.835.784,9.283,1.279a109.387,109.387,0,0,0,25.424.248q3.131-.382,6.053-1,1.072-.225,2.115-.484c.164-.038.324-.077.484-.119a8.892,8.892,0,0,0,6.22-5.812A9.072,9.072,0,0,0,796.1,614.9Z" transform="translate(-536.981 -401.448)" fill="#2f2e41"/>
    <ellipse id="楕円形_20" data-name="楕円形 20" cx="11.276" cy="11.527" rx="11.276" ry="11.527" transform="translate(213.178 124.579)" fill="#ffb6b6"/>
    <path id="パス_75" data-name="パス 75" d="M843.543,509.466c-.017-.129-.038-.258-.066-.387a16.577,16.577,0,0,0-1.638-4.147,16,16,0,0,1-1.5-3.7,10.7,10.7,0,0,1,.042-3.53,9.436,9.436,0,0,0-.045-3.788,92.971,92.971,0,0,0-7.457-18.42,14,14,0,0,0-11.621-9.778,3.3,3.3,0,0,0,.373-1.9,3.227,3.227,0,0,0-1.188-2.185,3.11,3.11,0,0,0-2.3-.669l-5.241.589a3.213,3.213,0,0,0-2.791,3.558,3.477,3.477,0,0,0,.174.76c-4.865,6.2-7.363,11.841-7.593,17.179v0a18.2,18.2,0,0,0,.01,1.85,18.436,18.436,0,0,0,1.282,5.809,24.78,24.78,0,0,0,3.471,5.969q.439.554.909,1.087.439.523.983,1.1l.917,1.436.854,1.342,4.565,10.534,2.324-.077.324,2.317.077.54,1.505,5.391.112.4,2.059-.979,12.287-5.833,9.186-4.363Z" transform="translate(-592.314 -311.898)" fill="#3ba9f3"/>
    <path id="パス_76" data-name="パス 76" d="M806.833,518.438a24.663,24.663,0,0,0,4.357,7.014c.314.375.646.744.994,1.114l1.784,2.8c6.575-4.928,11.9-24.334,11.9-24.334l-7.419-1.443Z" transform="translate(-595.024 -339.684)" opacity="0.2" style="isolation: isolate"/>
    <path id="パス_77" data-name="パス 77" d="M776.481,455.509a4.957,4.957,0,0,1-1.674,6.708,4.763,4.763,0,0,1-.706.346l.525,17.285-7.485-4.712.649-15.692a4.943,4.943,0,0,1,2.129-5.647,4.731,4.731,0,0,1,6.5,1.6C776.437,455.434,776.459,455.471,776.481,455.509Z" transform="translate(-569.163 -306.799)" fill="#ffb6b6"/>
    <path id="パス_78" data-name="パス 78" d="M775.119,496.173l-8.231,1.17.354,17.046a7.132,7.132,0,0,0,3.487,6.011h0a6.834,6.834,0,0,0,8.163-.927l19.434-18.693a7.369,7.369,0,0,0,.543-10.118h0a6.989,6.989,0,0,0-9.848-.828q-.083.07-.164.143a7.177,7.177,0,0,0-.547.545l-12.833,14.762Z" transform="translate(-568.998 -329.649)" fill="#3ba9f3"/>
    <path id="パス_79" data-name="パス 79" d="M691.347,800.962l-5.133-2.46-.8-.386-1.286,3.157-8.976,1.976a2.13,2.13,0,0,0-.349,4.053l8.771,3.579,2.784-2.506-.683,3.363,3.3,1.348,3.62-11.524Z" transform="translate(-508.135 -531.579)" fill="#2f2e41"/>
    <path id="パス_80" data-name="パス 80" d="M847.665,386.936c-1.917-2.235-2.828-5.2-4.36-7.739s-4.2-4.81-7.016-4.219a6.294,6.294,0,0,0-4.2,4.031,19.834,19.834,0,0,0-1.035,6.081,10.382,10.382,0,0,0-6.6-9.706,9.714,9.714,0,0,0-10.874,3.564,5.878,5.878,0,0,0-7.806-.164,6.548,6.548,0,0,0-1.051,8.08,5.917,5.917,0,0,0,7.565,2.017l.894.822a3.875,3.875,0,0,0,2.113,4.5c1.33.537,3.208.448,3.705,1.844a2.925,2.925,0,0,1-.994,2.766,4.663,4.663,0,0,0-1.6,2.56c-.125,1.565,1.491,2.661,2.961,2.991a9.234,9.234,0,0,0,9.52-3.973q.059-.09.128-.181a13.688,13.688,0,0,0,2.753-10.466c-.115-.723,0-1.261.5-1.432,2.154-.74,8.19.813,10.017,2.217s3.29,3.261,5.049,4.756,4,2.647,6.236,2.24a6.919,6.919,0,0,0,4.336-3.192,19.211,19.211,0,0,0,2.141-5.209A10.077,10.077,0,0,1,847.665,386.936Z" transform="translate(-593.037 -255.829)" fill="#2f2e41"/>
    <path id="パス_81" data-name="パス 81" d="M698.7,655.646v.077l-.1-.01c-.115.083-.23.16-.345.24q-1.249.857-2.519,1.687-.622.408-1.247.8v0s-.007,0-.01,0h0l-.007.007-.021.01-.028.017V594.069c0-1.868-.627-3.383-1.4-3.387H635c-.774,0-1.4,1.519-1.4,3.387V679.6c-.774.077-1.547.15-2.321.213-.014,0-.028,0-.042,0-.307.028-.613.049-.92.073h0c-.185-.342-.366-.686-.547-1.035V589.675c0-.516.021-1.035.056-1.547a19.861,19.861,0,0,1,.261-2.1c.589-3.237,1.92-5.429,3.432-5.436H694.5a1.627,1.627,0,0,1,.641.136,2.5,2.5,0,0,1,.791.554,4.9,4.9,0,0,1,.777,1.063,13.987,13.987,0,0,1,1.467,5.551c0,.021,0,.042,0,.063.049.564.073,1.139.07,1.714l.049,7.468.031,4.453.094,13.973.035,4.962Z" transform="translate(-479.661 -389.856)" fill="#2f2e41"/>
    <path id="パス_82" data-name="パス 82" d="M481.768,466.029l-4.036,17.756-2.579,2.825h-1.86l7.667-32.284.379,5.485v0Z" transform="translate(-308.367 -296.009)" fill="#2f2e41"/>
    <path id="パス_83" data-name="パス 83" d="M690.757,572.87l-23.675-.15-2.1-.014-1.5-.01-1.746-.01h-.014a.963.963,0,0,0-.676.279l-2.948,2.948a.757.757,0,0,0-.157.223.341.341,0,0,0-.045.077.984.984,0,0,0,.885,1.373H689.45a.977.977,0,0,0,.878-.558l.24-.523.495-1.063.561-1.2a.955.955,0,0,0,.091-.408A.97.97,0,0,0,690.757,572.87Z" transform="translate(-497.935 -384.704)" fill="#2f2e41"/>
    <path id="パス_84" data-name="パス 84" d="M690.569,582.956l-.242.525a.975.975,0,0,1-.876.557h-30.67a.982.982,0,0,1-.884-1.372.3.3,0,0,1,.044-.077Z" transform="translate(-497.935 -391.156)" opacity="0.17" style="isolation: isolate"/>
    <path id="パス_85" data-name="パス 85" d="M481.34,459.811v0l-6.566,26.8h-1.481l7.667-32.284Z" transform="translate(-308.367 -296.009)" opacity="0.17" style="isolation: isolate"/>
    <path id="パス_86" data-name="パス 86" d="M682.54,367.745l-9.294-70.707a1.008,1.008,0,0,0-.383-.669l-6.4-8.008-.575-.443a1.02,1.02,0,0,0-.746-.2l-.962.129a1.008,1.008,0,0,0-.871,1.129h0l9.632,73.261v0l.589,4.481.7,5.321v.007l1.087,8.28a.987.987,0,0,0,.436.7,1,1,0,0,0,.812.146l.61-.153a1.023,1.023,0,0,0,.578-.4l.272-.387.125-.181,4.209-11.6A1,1,0,0,0,682.54,367.745Z" transform="translate(-501.509 -199.034)" fill="#2f2e41"/>
    <path id="パス_87" data-name="パス 87" d="M666.465,288.361l11.69,91.7-.127.18-.271.386a1.02,1.02,0,0,1-.579.4l-.611.154a1.012,1.012,0,0,1-1.247-.85l-12.006-91.353a1.009,1.009,0,0,1,.869-1.132l.964-.127a1,1,0,0,1,.743.2Z" transform="translate(-501.512 -199.033)" opacity="0.17" style="isolation: isolate"/>
    <path id="パス_88" data-name="パス 88" d="M474.361,263.872l6.2,8.855,7.374,56.1-4,7.931Z" transform="translate(-309.063 -171.922)" fill="#3ba9f3"/>
    <path id="パス_89" data-name="パス 89" d="M884,616.048a3.031,3.031,0,0,1-1.944,2.829,2.945,2.945,0,0,1-.847.188c-.076.007-.157.01-.233.01h-5.851v28.386c-.087.115-.178.23-.268.345-.5.641-1.01,1.282-1.526,1.913-.112.139-.223.275-.331.411-.171.206-.338.411-.505.613-.059.07-.115.136-.171.206-.286.341-.572.683-.864,1.024,0,0,0,0,0,0q-.423.5-.857,1a2.972,2.972,0,0,1-1.219-1.286s0-.007-.007-.014a.149.149,0,0,1-.01-.024,2.977,2.977,0,0,1-.293-1.307V619.076H855.956a2.919,2.919,0,0,1-1.129-.219,3.014,3.014,0,0,1-1.819-2.119v0a2.983,2.983,0,0,1,.244-2.042s0,0,0,0a2.857,2.857,0,0,1,.533-.746s0,0,0-.007a3.034,3.034,0,0,1,2.167-.913h25.02A3.026,3.026,0,0,1,884,616.048Z" transform="translate(-625.056 -410.985)" fill="#2f2e41"/>
    <path id="パス_90" data-name="パス 90" d="M923.791,454.367a9.483,9.483,0,0,0-9.484,9.483h0a9.485,9.485,0,0,0,7.666,9.307v15.511h6.053v-34.3Z" transform="translate(-665.047 -307.615)" fill="#2f2e41"/>
    <path id="パス_91" data-name="パス 91" d="M831.547,385.08c2.591,3.441,5.979,11.75,4.747,15.878" transform="translate(-611.126 -262.472)" fill="#fd6584"/>
  </g>
</svg>
