<svg id="undraw_Mobile_apps_re_3wjf_1_" data-name="undraw_Mobile_apps_re_3wjf (1)" xmlns="http://www.w3.org/2000/svg" width="341.112" height="299.649" viewBox="0 0 341.112 299.649">
  <path id="パス_131" data-name="パス 131" d="M908.476,745.931V716.237S920.048,737.289,908.476,745.931Z" transform="translate(-611.295 -457.126)" fill="#f1f1f1"/>
  <path id="パス_132" data-name="パス 132" d="M878.8,759.724l-21.875-20.081S880.262,745.355,878.8,759.724Z" transform="translate(-580.907 -470.925)" fill="#f1f1f1"/>
  <path id="パス_133" data-name="パス 133" d="M283.573,745.931V716.237S272,737.289,283.573,745.931Z" transform="translate(-239.873 -457.126)" fill="#f1f1f1"/>
  <path id="パス_134" data-name="パス 134" d="M289.123,759.724,311,739.643S287.664,745.355,289.123,759.724Z" transform="translate(-246.138 -470.924)" fill="#f1f1f1"/>
  <path id="パス_135" data-name="パス 135" d="M568.624,153.576h-1.585V110.143A25.138,25.138,0,0,0,541.9,85.005H449.882a25.138,25.138,0,0,0-25.138,25.138V348.419a25.138,25.138,0,0,0,25.138,25.138H541.9a25.138,25.138,0,0,0,25.138-25.138V184.492h1.585Z" transform="translate(-326.128 -85.005)" fill="#3f3d56"/>
  <path id="パス_136" data-name="パス 136" d="M552.876,100.938H540.865a8.919,8.919,0,0,1-8.258,12.287H479.891a8.919,8.919,0,0,1-8.258-12.287H460.415a18.773,18.773,0,0,0-18.773,18.773V357.637a18.773,18.773,0,0,0,18.773,18.773h92.462a18.773,18.773,0,0,0,18.773-18.773h0V119.71a18.773,18.773,0,0,0-18.773-18.773Z" transform="translate(-336.089 -94.398)" fill="#fff"/>
  <path id="パス_137" data-name="パス 137" d="M554.562,702.932H466.733c-10.092,0-18.3-7.328-18.3-16.336V674.77c0-7.179,6.539-13.02,14.576-13.02h95.283c8.037,0,14.576,5.841,14.576,13.02V686.6C572.864,695.6,564.654,702.932,554.562,702.932Z" transform="translate(-340.091 -425.005)" fill="#e5e5e5"/>
  <path id="パス_138" data-name="パス 138" d="M485.472,245.912H465.881a1.325,1.325,0,0,1-1.324-1.324V225a1.325,1.325,0,0,1,1.324-1.324h19.591A1.325,1.325,0,0,1,486.8,225v19.591A1.325,1.325,0,0,1,485.472,245.912Z" transform="translate(-349.598 -166.752)"/>
  <path id="パス_139" data-name="パス 139" d="M557.708,245.912H538.117a1.325,1.325,0,0,1-1.324-1.324V225a1.325,1.325,0,0,1,1.324-1.324h19.591A1.325,1.325,0,0,1,559.032,225v19.591A1.325,1.325,0,0,1,557.708,245.912Z" transform="translate(-392.182 -166.752)" fill="#e5e5e5"/>
  <path id="パス_140" data-name="パス 140" d="M629.945,245.912H610.353a1.325,1.325,0,0,1-1.324-1.324V225a1.325,1.325,0,0,1,1.324-1.324h19.591A1.325,1.325,0,0,1,631.268,225v19.591A1.325,1.325,0,0,1,629.945,245.912Z" transform="translate(-434.767 -166.752)" fill="#e5e5e5"/>
  <path id="パス_141" data-name="パス 141" d="M702.181,245.912H682.589a1.325,1.325,0,0,1-1.324-1.324V225a1.325,1.325,0,0,1,1.324-1.324h19.591A1.325,1.325,0,0,1,703.5,225v19.591a1.325,1.325,0,0,1-1.324,1.324Z" transform="translate(-477.351 -166.752)" fill="#e5e5e5"/>
  <path id="パス_142" data-name="パス 142" d="M485.3,334.272H465.71a1.325,1.325,0,0,1-1.324-1.324V313.357a1.325,1.325,0,0,1,1.324-1.324H485.3a1.325,1.325,0,0,1,1.324,1.324v19.591A1.325,1.325,0,0,1,485.3,334.272Z" transform="translate(-349.497 -218.842)" fill="#e5e5e5"/>
  <path id="パス_143" data-name="パス 143" d="M557.538,334.272H537.946a1.325,1.325,0,0,1-1.324-1.324V313.357a1.325,1.325,0,0,1,1.324-1.324h19.591a1.325,1.325,0,0,1,1.324,1.324v19.591a1.325,1.325,0,0,1-1.324,1.324Z" transform="translate(-392.082 -218.842)" fill="#e5e5e5"/>
  <path id="パス_144" data-name="パス 144" d="M629.774,334.272H610.183a1.325,1.325,0,0,1-1.324-1.324V313.357a1.325,1.325,0,0,1,1.324-1.324h19.591a1.325,1.325,0,0,1,1.324,1.324v19.591a1.325,1.325,0,0,1-1.324,1.324Z" transform="translate(-434.666 -218.842)"/>
  <path id="パス_145" data-name="パス 145" d="M702.01,334.272H682.419a1.325,1.325,0,0,1-1.324-1.324V313.357a1.325,1.325,0,0,1,1.324-1.324H702.01a1.325,1.325,0,0,1,1.324,1.324v19.591A1.325,1.325,0,0,1,702.01,334.272Z" transform="translate(-477.251 -218.842)"/>
  <path id="パス_146" data-name="パス 146" d="M485.131,422.633H465.539a1.325,1.325,0,0,1-1.324-1.324V401.718a1.325,1.325,0,0,1,1.324-1.324h19.591a1.325,1.325,0,0,1,1.324,1.324v19.591A1.325,1.325,0,0,1,485.131,422.633Z" transform="translate(-349.397 -270.932)" fill="#e5e5e5"/>
  <path id="パス_147" data-name="パス 147" d="M557.367,422.633H537.776a1.325,1.325,0,0,1-1.324-1.324V401.718a1.325,1.325,0,0,1,1.324-1.324h19.591a1.325,1.325,0,0,1,1.324,1.324v19.591A1.325,1.325,0,0,1,557.367,422.633Z" transform="translate(-391.981 -270.932)" fill="#e5e5e5"/>
  <path id="パス_148" data-name="パス 148" d="M629.6,422.633H610.012a1.325,1.325,0,0,1-1.324-1.324V401.718a1.325,1.325,0,0,1,1.324-1.324H629.6a1.325,1.325,0,0,1,1.324,1.324v19.591a1.325,1.325,0,0,1-1.324,1.324Z" transform="translate(-434.566 -270.932)" fill="#e5e5e5"/>
  <path id="パス_149" data-name="パス 149" d="M701.839,422.633H682.248a1.325,1.325,0,0,1-1.324-1.324V401.718a1.325,1.325,0,0,1,1.324-1.324h19.591a1.325,1.325,0,0,1,1.324,1.324v19.591a1.325,1.325,0,0,1-1.324,1.324Z" transform="translate(-477.15 -270.932)" fill="#e5e5e5"/>
  <path id="パス_150" data-name="パス 150" d="M484.96,510.993H465.369a1.325,1.325,0,0,1-1.324-1.324V490.078a1.325,1.325,0,0,1,1.324-1.324H484.96a1.325,1.325,0,0,1,1.324,1.324v19.591A1.325,1.325,0,0,1,484.96,510.993Z" transform="translate(-349.296 -323.022)" fill="#e5e5e5"/>
  <path id="パス_151" data-name="パス 151" d="M557.2,510.993H537.6a1.325,1.325,0,0,1-1.324-1.324V490.078a1.325,1.325,0,0,1,1.324-1.324H557.2a1.325,1.325,0,0,1,1.324,1.324v19.591a1.325,1.325,0,0,1-1.324,1.324Z" transform="translate(-391.88 -323.022)" fill="#e5e5e5"/>
  <path id="パス_152" data-name="パス 152" d="M629.433,510.993H609.841a1.325,1.325,0,0,1-1.324-1.324V490.078a1.325,1.325,0,0,1,1.324-1.324h19.591a1.325,1.325,0,0,1,1.324,1.324v19.591a1.325,1.325,0,0,1-1.324,1.324Z" transform="translate(-434.465 -323.022)" fill="#e5e5e5"/>
  <path id="パス_153" data-name="パス 153" d="M701.669,510.993H682.077a1.325,1.325,0,0,1-1.324-1.324V490.078a1.325,1.325,0,0,1,1.324-1.324h19.591a1.325,1.325,0,0,1,1.324,1.324v19.591A1.325,1.325,0,0,1,701.669,510.993Z" transform="translate(-477.049 -323.022)" fill="#e5e5e5"/>
  <path id="パス_154" data-name="パス 154" d="M485.472,708.353H465.881a1.325,1.325,0,0,1-1.324-1.324V687.438a1.325,1.325,0,0,1,1.324-1.324h19.591a1.325,1.325,0,0,1,1.324,1.324v19.591A1.325,1.325,0,0,1,485.472,708.353Z" transform="translate(-349.598 -439.368)" fill="#fff"/>
  <path id="パス_155" data-name="パス 155" d="M557.708,708.353H538.117a1.325,1.325,0,0,1-1.324-1.324V687.438a1.325,1.325,0,0,1,1.324-1.324h19.591a1.325,1.325,0,0,1,1.324,1.324v19.591A1.325,1.325,0,0,1,557.708,708.353Z" transform="translate(-392.182 -439.368)" fill="#fff"/>
  <path id="パス_156" data-name="パス 156" d="M629.945,708.353H610.353a1.325,1.325,0,0,1-1.324-1.324V687.438a1.325,1.325,0,0,1,1.324-1.324h19.591a1.325,1.325,0,0,1,1.324,1.324v19.591A1.325,1.325,0,0,1,629.945,708.353Z" transform="translate(-434.767 -439.368)" fill="#fff"/>
  <path id="パス_157" data-name="パス 157" d="M702.181,708.353H682.589a1.325,1.325,0,0,1-1.324-1.324V687.438a1.325,1.325,0,0,1,1.324-1.324h19.591a1.325,1.325,0,0,1,1.324,1.324v19.591a1.325,1.325,0,0,1-1.324,1.324Z" transform="translate(-477.351 -439.368)" fill="#fff"/>
  <circle id="楕円形_9" data-name="楕円形 9" cx="2.647" cy="2.647" r="2.647" transform="translate(158.308 222.389)" fill="#e5e5e5"/>
  <circle id="楕円形_10" data-name="楕円形 10" cx="2.647" cy="2.647" r="2.647" transform="translate(167.839 222.389)" fill="#e5e5e5"/>
  <circle id="楕円形_11" data-name="楕円形 11" cx="2.647" cy="2.647" r="2.647" transform="translate(177.37 222.389)" fill="#e5e5e5"/>
  <path id="パス_158" data-name="パス 158" d="M525.2,787.826H184.91a.411.411,0,0,1,0-.821H525.2a.411.411,0,0,1,0,.821Z" transform="translate(-184.5 -498.845)" fill="#cbcbcb"/>
  <path id="パス_159" data-name="パス 159" d="M497.626,554.047a5.357,5.357,0,0,0-.722-8.182l5.17-18.32-9.426,3-3.465,16.937a5.386,5.386,0,0,0,8.443,6.567Z" transform="translate(-363.659 -345.89)" fill="#ffb7b7"/>
  <path id="パス_160" data-name="パス 160" d="M500.3,462.331a2.453,2.453,0,0,1-.511.043l-9.043-.181a2.4,2.4,0,0,1-2.323-2.747l9.173-61.979a7.6,7.6,0,0,1,7.494-6.451h0a7.558,7.558,0,0,1,7.319,9.369l-6.5,26.335-3.687,33.52A2.383,2.383,0,0,1,500.3,462.331Z" transform="translate(-363.652 -265.403)" fill="#3f3d56"/>
  <path id="パス_161" data-name="パス 161" d="M342.1,690.228h5.033l2.394-19.411H342.1Z" transform="translate(-201.675 -395.457)" fill="#ffb7b7"/>
  <path id="パス_162" data-name="パス 162" d="M523.478,799.107h9.911a6.316,6.316,0,0,1,6.316,6.315v.206H523.478Z" transform="translate(-384.333 -505.979)" fill="#2f2e41"/>
  <path id="パス_163" data-name="パス 163" d="M394.382,686.42l5,.561,4.543-19.023-7.381-.828Z" transform="translate(-232.494 -393.284)" fill="#ffb7b7"/>
  <path id="パス_164" data-name="パス 164" d="M575.177,794.8l9.849,1.1h0a6.316,6.316,0,0,1,5.573,6.98l-.023.2-16.126-1.808Z" transform="translate(-414.382 -503.442)" fill="#2f2e41"/>
  <path id="パス_165" data-name="パス 165" d="M510.33,537.334s-6.9,15.274-.807,25.194l3.63,77.24h8.334l8.085-62.394,14.367,18.472-8.753,43.112,10.193.572,14.158-43.684s-10.877-48.17-14.469-49.33l-2.361-11.011Z" transform="translate(-374.625 -350.582)" fill="#2f2e41"/>
  <path id="パス_166" data-name="パス 166" d="M505.961,572.325s-6.215,7.133,10.2,9.6,33.66-1.231,34.07-6.157S505.961,572.325,505.961,572.325Z" transform="translate(-373.326 -372.164)" fill="#cbcbcb"/>
  <path id="パス_167" data-name="パス 167" d="M681.8,349.88a4.766,4.766,0,0,1-5.771,4.485l-6.206,8.95-6.359-2.445,8.942-12.517a4.792,4.792,0,0,1,9.394,1.527Z" transform="translate(-466.857 -238.206)" fill="#ffb7b7"/>
  <path id="パス_168" data-name="パス 168" d="M535,379.411l-8.775-3.97-11.243.8s-13.554,15.847-8.218,31.035l-3.284,52.952c20.935,5.747,30.451-5.032,45.564-.411l-4.668-58.851Z" transform="translate(-372.541 -256.222)" fill="#3f3d56"/>
  <path id="パス_169" data-name="パス 169" d="M565.976,379.821l5.865-3.856s8.147-1.232,11.4,1.928c0,0,11.053.925,13.722,3.684l2.939.663L609.67,369.6l5.975,3.247-8.62,23.4-25.808,1.285Z" transform="translate(-409.386 -252.776)" fill="#3f3d56"/>
  <circle id="楕円形_12" data-name="楕円形 12" cx="13.852" cy="13.852" r="13.852" transform="translate(133.17 97.101) rotate(-28.663)" fill="#ffb7b7"/>
  <path id="パス_170" data-name="パス 170" d="M518.152,298.224c2.473-4.447,5.562-7.327,10.649-7.223s9.487-.1,11.776,4.447a7.473,7.473,0,0,0,.88-3.686,4.221,4.221,0,0,1,1.863,4.246,3.083,3.083,0,0,0,1.522-2.531c1.7.565,2.139,2.958,1.28,4.527s-2.544,2.477-4.16,3.244-.87,4.825-1.926,6.27a16.92,16.92,0,0,0-1.57,3.39.222.222,0,0,1-.1.1,2.984,2.984,0,0,0-1.656,3.056.5.5,0,0,1-.016.291c-1.441,2.715-3,5.555-5.608,7.174a9.3,9.3,0,0,1-6.986,1.08,12.141,12.141,0,0,1-6.642-4.591,23.328,23.328,0,0,1-3.539-7.387,13.827,13.827,0,0,1-.667-7.185c.566-2.368,2.482-4.561,4.91-4.744" transform="translate(-378.164 -206.442)" fill="#2f2e41"/>
</svg>
